<svg width="584" height="238" viewBox="0 0 584 238" fill="none" xmlns="http://www.w3.org/2000/svg">
<path d="M76.3097 0.469641C75.8275 0.851489 75.5864 1.38183 75.2247 2.84559C74.5979 5.37003 73.9469 6.83379 72.7655 8.44604C70.9331 10.9281 68.1604 12.6888 64.8573 13.4737C62.6873 13.9828 61.8435 14.3647 61.5059 14.9799C60.7585 16.4436 61.5059 17.1861 64.6644 18.0347C68.0157 18.9469 68.9801 19.456 71.1983 21.3653C73.0066 22.9351 74.5014 25.5019 75.2247 28.3022C75.6587 29.9993 75.8516 30.4236 76.4785 30.869C77.3947 31.5479 78.3591 31.5479 79.2753 30.869C79.8539 30.4448 80.0468 30.0629 80.2879 28.9174C80.746 26.7111 81.6622 24.42 82.5302 23.1684C84.3867 20.5803 87.5692 18.459 90.5348 17.8438C92.4636 17.4407 92.9699 17.2073 93.428 16.4649C94.2478 15.1072 93.3075 14.0465 90.8 13.4737C87.4487 12.71 84.7724 11.0765 82.9159 8.65817C81.6863 7.06714 81.4693 6.60043 80.5772 3.6305C80.0227 1.84854 79.661 1.06363 79.1788 0.618137C78.335 -0.14556 77.2018 -0.209202 76.3097 0.469641Z" fill="#38243D"/>
<path d="M28.6984 81.5087C26.9954 80.9895 23.9302 74.6557 25.2925 53.4739H51.4041L76.3803 69.0488L91.139 59.7038L131.442 50.8781V81.5087L87.1655 93.9686L153.012 126.157V196.763L76.3803 236.219L4.85742 196.763V126.157L63.8922 96.5644V89.2961L28.6984 81.5087Z" fill="#E6A74A" stroke="white"/>
<path d="M48.8964 24.8018C48.4624 25.12 48.149 25.714 47.7632 27.0293C47.1846 28.9173 46.0031 30.8053 44.7012 31.866C43.9538 32.46 41.7356 33.5207 41.2052 33.5207C40.5542 33.5419 38.8424 34.348 38.6013 34.7511C38.2155 35.3875 38.6736 36.2361 39.5898 36.5755C40.0238 36.7452 41.0123 37.1058 41.8079 37.3604C45.1111 38.4635 46.847 40.4152 48.1007 44.4034C48.4142 45.358 48.6553 45.6974 49.1857 45.9308C50.5118 46.546 51.5003 45.6338 51.9825 43.3639C52.1995 42.3032 53.1398 40.6485 54.1283 39.5666C55.2133 38.3999 56.5153 37.6362 58.6129 36.9361C60.5658 36.3209 61.1927 35.7057 60.9275 34.7511C60.7587 34.1995 60.2283 33.9238 58.42 33.5207C56.8769 33.1813 54.5382 31.6751 53.5015 30.3386C52.971 29.7022 52.3442 28.493 52.079 27.6869C51.3315 25.5231 51.1145 25.0564 50.5359 24.717C49.8849 24.2927 49.6197 24.3139 48.8964 24.8018Z" fill="#38243D"/>
<path d="M104.712 24.611C104.061 24.8443 103.82 25.2474 103.434 26.7324C102.783 29.2356 100.902 31.654 98.7324 32.7783C98.202 33.0541 97.117 33.4359 96.3214 33.6269C94.8748 33.9875 93.7898 34.7088 93.7898 35.3452C93.7898 35.9392 94.923 36.6604 96.4419 37.0423C99.7451 37.8484 102.204 40.0546 103.217 43.1519C103.964 45.4217 104.133 45.7399 104.76 46.0369C105.194 46.2491 105.435 46.2491 105.99 46.0157C106.544 45.7824 106.785 45.4429 107.123 44.4459C108.666 39.991 110.498 38.1242 114.284 37.1271C116.068 36.6604 116.695 36.1937 116.695 35.3876C116.695 34.6875 116.092 34.2421 114.404 33.7329C110.667 32.6086 108.642 30.7206 107.557 27.3688C106.882 25.311 106.641 24.9292 105.917 24.6322C105.604 24.5049 105.315 24.3988 105.29 24.4201C105.266 24.4201 105.001 24.5049 104.712 24.611Z" fill="#38243D"/>
<path d="M22.5196 47.3522C22.2303 47.4583 21.7722 47.925 21.4828 48.3705C21.0006 49.1342 20.9765 49.4524 20.9765 54.2679C20.9765 57.0894 20.8801 59.4229 20.7836 59.4865C20.6631 59.5502 19.5299 59.7835 18.2279 60.0168C15.2624 60.5472 13.7916 61.1836 13.213 62.1594C12.8031 62.8595 12.779 63.4959 12.8272 72.0239L12.8996 81.1458L13.5747 82.1429C14.8766 84.1157 15.8651 84.4764 23.1465 85.6007C37.468 87.8282 47.1845 89.7798 56.1777 92.2831C58.227 92.8558 60.397 93.4286 60.9515 93.5559L62.0124 93.7893L60.5899 94.553C56.467 96.7592 34.7918 106.793 16.1545 115.152C12.1039 116.955 7.83638 118.928 6.63087 119.5C2.91787 121.346 0.989041 123.425 0.265731 126.395C0.0728476 127.201 0.000516548 137.023 0.000516548 161.504C0.000516548 198.925 -0.0718145 196.867 1.49536 199.455C2.33922 200.855 4.09928 202.362 6.05222 203.359C6.77553 203.74 11.3083 206.032 16.1545 208.492C21.0006 210.932 27.8239 214.39 31.344 216.172C34.8641 217.954 39.0834 220.096 40.747 220.945C46.1236 223.639 53.9113 227.648 63.0973 232.379C72.8138 237.407 75.6347 238.361 79.3718 237.895C81.373 237.64 84.869 236.24 89.2089 233.97C90.6073 233.228 92.9942 231.997 94.5131 231.234C96.0321 230.449 101.746 227.542 107.171 224.785C112.62 222.006 117.876 219.333 118.865 218.824C119.853 218.314 126.146 215.111 132.849 211.717C139.551 208.301 146.013 205.013 147.218 204.398C148.424 203.783 149.846 203.04 150.377 202.743C151.679 202.022 153.439 200.24 154.186 198.925C155.585 196.401 155.536 197.801 155.464 160.74L155.392 126.756L154.717 125.292C153.825 123.34 152.474 121.791 150.642 120.646C149.798 120.116 146.519 118.525 143.337 117.103C137.213 114.345 121.637 107.26 112.596 103.102C100.565 97.5865 93.3076 94.0438 93.3076 93.7256C93.3076 93.6408 93.5487 93.5559 93.8139 93.5559C94.1033 93.5559 96.3455 92.9831 98.8289 92.3043C108.762 89.5041 114.621 88.3373 132.366 85.6007C139.768 84.4552 140.733 84.0945 141.938 81.9307L142.613 80.7215L142.686 71.8754C142.758 63.3686 142.734 62.9868 142.276 62.1807C141.552 60.9503 140.082 60.4199 135.477 59.7411L134.585 59.5926L134.488 54.3528C134.392 48.6462 134.271 48.1583 132.945 47.3734C132.391 47.0552 132.101 47.0552 130.124 47.2886C124.579 47.9674 115.803 49.6645 109.462 51.2556C95.6704 54.7558 85.52 58.744 80.0228 62.8383C77.7082 64.5566 77.4912 64.6415 76.575 64.0475C76.1652 63.7929 75.2007 63.0929 74.4533 62.4989C70.4028 59.4017 63.6519 56.3469 54.7793 53.6527C46.0513 51.0222 35.274 48.6462 26.4737 47.4158C23.7733 47.0552 23.2188 47.034 22.5196 47.3522ZM32.7183 55.6044C44.5806 57.5773 54.5382 60.2926 62.3499 63.6444C68.1123 66.1264 71.7047 68.7569 74.6462 72.6391C76.0928 74.5483 76.8643 75.0574 78.0458 74.7817C78.9619 74.5907 79.1066 74.4635 81.0113 72.236C85.8334 66.5931 93.1147 62.7322 105.363 59.3592C111.559 57.6621 123.759 55.1589 125.929 55.1589C126.315 55.1589 126.339 55.7317 126.291 65.0657L126.218 74.9726L121.637 75.5454C107.388 77.3061 96.0562 79.8518 89.1365 82.8641C86.2192 84.1158 84.6761 85.0492 82.6267 86.7463L81.2524 87.8918H73.8023L72.1869 86.5766C70.2099 84.9431 68.6186 84.0309 65.4601 82.7156C57.7448 79.5336 46.2201 77.0516 30.3796 75.1423L29.0535 74.9938L28.9812 65.0657L28.933 55.1589H29.5116C29.8491 55.1589 31.2958 55.3498 32.7183 55.6044ZM73.1513 98.6472C73.6094 99.0503 73.6577 99.4109 73.8023 103.59C73.9711 108.342 73.8023 110.124 73.1513 110.76C72.428 111.46 70.3304 111.969 64.9538 112.754C60.5899 113.391 48.2212 115.258 38.2154 116.785C33.6586 117.485 26.8595 118.588 26.3531 118.715C26.0397 118.8 25.7986 118.8 25.7986 118.737C25.7986 118.673 29.6804 116.827 34.4301 114.642C39.1557 112.457 46.5094 109.042 50.7528 107.069C70.9814 97.6502 70.3304 97.926 71.8253 98.1169C72.2834 98.1593 72.8861 98.4139 73.1513 98.6472ZM88.365 99.6018C90.1009 100.344 92.3673 101.384 93.4282 101.893C94.489 102.402 99.3111 104.672 104.157 106.921C109.003 109.169 114.308 111.651 115.971 112.436C117.635 113.221 121.107 114.833 123.687 116.043C126.266 117.252 128.605 118.376 128.87 118.546C129.328 118.822 129.28 118.843 128.509 118.715C127.11 118.482 118.31 117.124 113.922 116.467C111.68 116.127 106.4 115.321 102.228 114.685C81.8311 111.524 82.6991 111.715 81.807 110.569C81.4212 110.06 81.373 109.487 81.373 104.99C81.3971 99.5806 81.5418 98.8806 82.6749 98.329C83.6635 97.8411 84.9654 98.1169 88.365 99.6018ZM68.9561 119.331C68.9561 119.606 68.0641 120.964 65.8218 124.104C64.544 125.907 62.7598 128.431 61.8436 129.725C60.9515 130.998 59.3602 133.247 58.3476 134.711C57.3108 136.174 54.9721 139.505 53.1639 142.136C51.3556 144.766 49.1374 147.948 48.2454 149.242C43.6403 155.861 39.3245 162.098 35.9732 166.956C31.6815 173.214 31.0306 174.062 30.5001 174.253C29.6322 174.55 29.7527 174.762 26.9559 167.592C24.2314 160.507 16.492 141.096 14.5391 136.408C11.7423 129.704 11.1877 128.177 11.477 127.922C11.5976 127.816 13.5988 127.434 15.9134 127.095C19.8433 126.501 31.7298 124.698 46.0513 122.513C52.1512 121.579 65.9906 119.543 67.389 119.373C68.6186 119.225 68.9561 119.225 68.9561 119.331ZM91.9815 120.073C94.3685 120.434 101.698 121.537 108.256 122.534C129.328 125.716 132.632 126.204 137.43 126.862C143.602 127.731 143.939 127.795 143.939 128.453C143.939 128.75 143.602 129.704 143.216 130.595C142.806 131.486 142.011 133.374 141.408 134.796C138.611 141.648 132.656 156.391 131.523 159.319C129.401 164.749 125.712 173.871 125.519 174.147C124.965 174.932 124.916 174.868 116.863 163.349C102.662 143.027 98.202 136.684 92.4637 128.665C87.6176 121.919 86.0745 119.606 86.2433 119.373C86.3156 119.288 86.6532 119.246 86.9907 119.309C87.3524 119.373 89.5946 119.713 91.9815 120.073ZM78.9137 122.449C79.7335 123.34 81.9034 126.352 88.0033 135.029C89.6428 137.362 91.644 140.226 92.4637 141.393C94.4408 144.193 103.265 156.794 105.676 160.273C106.737 161.78 108.811 164.749 110.305 166.85C116.116 175.059 118.238 178.135 118.816 179.217C119.54 180.617 119.419 181.275 118.358 181.466C117.346 181.636 38.9629 181.636 37.5162 181.466C36.8653 181.381 36.3107 181.19 36.2384 181.02C35.9008 180.236 36.9617 178.538 44.6529 167.486C45.3762 166.425 47.6908 163.095 49.7884 160.061C55.0445 152.467 61.0962 143.769 63.0491 140.969C64.5922 138.741 66.1835 136.471 71.4154 128.983C74.6944 124.252 75.924 122.576 76.5027 122.025C77.2501 121.304 77.9734 121.431 78.9137 122.449ZM8.77669 141.966C11.7905 149.688 20.5667 171.856 22.833 177.457C23.918 180.172 23.5322 182.315 21.6516 183.842C20.639 184.69 8.89724 190.694 8.14982 190.758L7.59528 190.821L7.57117 165.195C7.57117 151.109 7.61939 139.59 7.69172 139.59C7.78816 139.59 8.27037 140.672 8.77669 141.966ZM147.701 191.097C147.508 191.267 146.616 190.906 144.446 189.739C143.24 189.103 141.89 188.403 141.456 188.191C138.707 186.812 134.874 184.775 133.958 184.203C132.704 183.418 131.981 182.293 131.764 180.83C131.595 179.642 131.161 180.766 141.528 154.864C143.288 150.494 145.386 145.233 146.182 143.196L147.676 139.484L147.749 165.237C147.773 179.408 147.749 191.033 147.701 191.097ZM115.971 188.679C115.971 189.018 115.369 189.739 111.222 194.343C109.582 196.146 106.954 199.095 105.339 200.898C103.723 202.701 101.119 205.607 99.5522 207.368C93.8139 213.796 88.0998 220.224 83.7599 225.145C81.3007 227.903 79.0584 230.364 78.7932 230.597C77.877 231.361 76.3339 231.085 75.3454 229.982C74.8391 229.43 67.0514 220.605 61.2167 213.944C56.3705 208.429 49.2098 200.346 41.5427 191.691C40.1925 190.164 39.0593 188.785 39.0593 188.636C39.0593 188.445 46.9193 188.382 77.5153 188.382C110.305 188.382 115.971 188.424 115.971 188.679ZM29.2464 189.739C30.3555 190.142 31.344 191.076 34.3578 194.512C35.8285 196.167 38.8664 199.604 41.1087 202.149C44.9905 206.498 47.1604 208.959 50.5117 212.756C51.3074 213.669 53.0915 215.726 54.4899 217.339C55.8883 218.951 57.4796 220.775 58.0583 221.39C58.9986 222.43 59.0468 222.96 58.1306 222.239C57.9136 222.069 56.8286 221.475 55.6954 220.902C54.5623 220.308 50.1742 218.06 45.9308 215.854C34.5748 209.977 26.98 206.074 19.554 202.256C15.9375 200.41 12.7067 198.67 12.3691 198.395C11.7423 197.885 11.7664 197.313 12.4897 196.613C12.6826 196.4 15.1418 195.085 17.9386 193.664C20.7354 192.243 23.7251 190.715 24.5931 190.248C26.329 189.358 27.7998 189.188 29.2464 189.739ZM130.317 190.121C130.847 190.418 132.921 191.5 134.898 192.518C143.144 196.74 143.071 196.719 143.313 197.44C143.602 198.352 143.409 198.522 140.853 199.795C139.045 200.686 135.501 202.51 123.446 208.705C122.192 209.341 119.901 210.508 118.382 211.293C116.863 212.078 114.694 213.181 113.56 213.775C112.427 214.347 108.859 216.193 105.604 217.848C102.349 219.524 98.9012 221.306 97.9127 221.815C96.9242 222.324 96.0803 222.706 96.008 222.663C95.9115 222.557 101.023 216.723 111.149 205.353C115.031 200.983 119.491 195.955 121.059 194.215C125.133 189.612 125.447 189.4 127.906 189.506C128.967 189.548 129.618 189.718 130.317 190.121Z" fill="#38243D"/>
<path d="M63.3624 149.454C61.1201 150.197 59.0225 152.021 57.7447 154.291C56.3222 156.879 56.7079 157.834 59.1672 157.834C59.987 157.834 60.7585 157.749 60.9032 157.664C61.0478 157.579 61.53 156.9 61.9881 156.158C63.3624 153.867 65.3395 152.976 67.3406 153.761C69.2694 154.524 70.4026 156.306 69.9204 157.876C69.5106 159.191 67.7505 161.016 61.8435 166.298L56.1775 171.368V173.044C56.1775 175.759 55.3578 175.569 65.6288 175.484C72.5726 175.42 74.4532 175.356 74.7184 175.123C75.1042 174.784 75.1042 171.241 74.7184 170.88C74.5978 170.774 72.3074 170.668 69.3659 170.626C66.5691 170.605 64.2063 170.583 64.1339 170.583C64.0616 170.562 65.7252 169.013 67.8469 167.125C72.3074 163.116 73.8263 161.313 74.5496 159.255C75.8516 155.437 73.971 151.576 69.9686 149.836C68.8114 149.348 68.2568 149.242 66.4244 149.2C65.0019 149.157 63.9411 149.242 63.3624 149.454Z" fill="#38243D"/>
<path d="M85.4236 149.433C82.0722 150.388 79.8299 152.742 78.5521 156.667C78.094 158.131 78.0217 158.873 77.9976 161.97C77.9976 166.722 78.5039 168.632 80.5774 171.538C82.6267 174.444 85.1101 175.696 88.6543 175.675C92.7049 175.653 96.1044 172.726 97.6957 167.868C98.1779 166.404 98.2503 165.746 98.2503 162.076C98.2262 158.109 98.202 157.876 97.5752 156.243C97.1894 155.309 96.6108 154.121 96.2491 153.591C95.3329 152.191 93.5005 150.557 92.0539 149.879C90.9689 149.348 90.4626 149.242 88.6061 149.2C87.2318 149.157 86.0504 149.242 85.4236 149.433ZM89.6188 154.164C92.6326 155.415 94.031 160.952 92.6808 166.277C91.6681 170.286 89.0883 171.941 86.2674 170.371C84.869 169.586 83.784 167.762 83.3983 165.471C83.0125 163.264 83.2295 158.661 83.784 157.303C84.3386 155.924 85.4477 154.524 86.2674 154.143C87.1354 153.718 88.582 153.718 89.6188 154.164Z" fill="#38243D"/>
<path d="M186.629 91.936V89.248L199.941 81.44H204.933L219.653 127.648L221.701 126.752V100C221.701 97.5253 221.275 95.6053 220.421 94.24C219.568 92.7893 218.715 91.936 217.861 91.68L216.453 91.424V88.608L228.741 81.312C229.424 81.312 230.875 82.2933 233.093 84.256C235.312 86.1333 236.421 87.9253 236.421 89.632V126.24C236.421 127.691 231.643 130.123 222.085 133.536V157.6C222.085 160.416 222.384 162.379 222.981 163.488C223.664 164.512 225.072 165.024 227.205 165.024V168.608L201.093 180L199.045 175.904C202.715 175.051 204.976 173.003 205.829 169.76C206.427 167.456 206.725 164.683 206.725 161.44V134.432L193.925 96.032C193.499 94.752 192.859 93.8133 192.005 93.216C191.152 92.5333 190.384 92.1493 189.701 92.064C189.019 91.9787 187.995 91.936 186.629 91.936ZM248.643 161.312V118.816C248.643 118.219 253.507 116.128 263.235 112.544C272.963 108.875 278.553 107.04 280.003 107.04C281.454 107.04 283.63 108.789 286.531 112.288C289.518 115.787 291.011 118.944 291.011 121.76V168.096C291.011 168.779 286.318 170.955 276.931 174.624C267.63 178.208 261.913 180 259.779 180C257.731 180 255.342 178.165 252.611 174.496C249.966 170.827 248.643 166.432 248.643 161.312ZM270.531 168.224C272.153 168.224 273.817 167.541 275.523 166.176V128.416C275.523 122.101 273.347 118.944 268.995 118.944C267.289 118.944 265.625 119.584 264.003 120.864V158.752C264.003 165.067 266.179 168.224 270.531 168.224ZM319.128 160.032C319.128 162.251 319.768 164.085 321.048 165.536C322.414 166.901 323.907 167.584 325.528 167.584C327.15 167.584 328.856 166.944 330.648 165.664V125.856C330.648 120.651 328.899 117.707 325.4 117.024V114.208L338.328 106.912C340.206 107.68 341.955 108.96 343.576 110.752C345.198 112.459 346.008 114.08 346.008 115.616V159.008C346.008 161.824 346.606 164.256 347.8 166.304C348.995 168.352 350.488 169.376 352.28 169.376V172.192C351.683 172.277 347.032 174.88 338.328 180C336.366 179.147 334.574 177.909 332.952 176.288C331.416 174.581 330.648 172.96 330.648 171.424L314.648 180C314.392 179.829 314.008 179.616 313.496 179.36C312.984 179.019 312.088 178.379 310.808 177.44C309.614 176.416 308.547 175.349 307.608 174.24C305.048 171.424 303.768 168.224 303.768 164.64V125.856C303.768 121.163 301.678 118.389 297.496 117.536V114.72L311.448 106.912C313.326 107.68 315.075 108.96 316.696 110.752C318.318 112.459 319.128 114.08 319.128 115.616V160.032ZM352.496 114.72L366.576 107.04C367.174 107.211 367.856 107.467 368.624 107.808C369.478 108.064 370.587 108.875 371.952 110.24C373.403 111.605 374.128 113.141 374.128 114.848C374.555 114.677 376.56 113.355 380.144 110.88C383.814 108.32 386.16 107.04 387.184 107.04C389.915 107.04 392.475 108.832 394.864 112.416C397.254 116 398.448 119.285 398.448 122.272V128.544L385.264 135.968L383.088 134.176C383.088 127.008 382.406 122.912 381.04 121.888C379.504 120.779 377.2 120.224 374.128 120.224V161.056C374.128 166.261 375.878 169.205 379.376 169.888V172.704L366.448 180C364.571 179.232 362.822 177.995 361.2 176.288C359.579 174.496 358.768 172.832 358.768 171.296V128.8C358.768 125.045 358.086 122.229 356.72 120.352C355.44 118.475 354.032 117.536 352.496 117.536V114.72ZM416.609 166.944V99.104L420.577 95.264H412.513C407.308 95.264 404.364 96.672 403.681 99.488H400.865L393.569 88.992C394.593 87.3707 395.916 85.92 397.537 84.64C399.159 83.36 400.737 82.72 402.273 82.72H436.065C441.271 82.72 444.215 81.312 444.897 78.496H447.713L455.009 88.992C453.985 90.6133 452.663 92.064 451.041 93.344C449.42 94.624 447.841 95.264 446.305 95.264H431.969V160.288C431.969 163.445 432.311 165.707 432.993 167.072C433.676 168.437 435.084 169.12 437.217 169.12V173.088L410.977 184.096L408.929 180C410.807 180 412.599 178.891 414.305 176.672C415.841 174.539 416.609 171.296 416.609 166.944ZM493.823 123.936V160.16C493.823 163.317 494.335 165.536 495.359 166.816C496.383 168.011 497.962 168.864 500.095 169.376V172.192L486.143 180C484.266 179.232 482.517 177.995 480.895 176.288C479.274 174.496 478.463 172.875 478.463 171.424L462.463 180C462.207 179.829 461.823 179.616 461.311 179.36C460.799 179.019 459.903 178.379 458.623 177.44C457.429 176.416 456.362 175.349 455.423 174.24C452.863 171.424 451.583 168.224 451.583 164.64V143.648C451.583 142.283 453.802 140.533 458.239 138.4C462.677 136.267 467.114 134.517 471.551 133.152L478.335 130.976C478.335 126.112 477.055 122.741 474.495 120.864C471.935 118.901 466.986 117.92 459.647 117.92V114.08C472.874 109.387 480.298 107.04 481.919 107.04C484.735 107.04 487.423 108.875 489.983 112.544C492.543 116.213 493.823 120.011 493.823 123.936ZM466.943 160.032C466.943 162.251 467.583 164.085 468.863 165.536C470.229 166.901 471.722 167.584 473.343 167.584C474.965 167.584 476.671 166.944 478.463 165.664V136.736C476.33 137.504 474.709 138.144 473.599 138.656C472.575 139.168 471.466 139.979 470.271 141.088C468.053 143.136 466.943 146.677 466.943 151.712V160.032ZM522.003 90.272V161.056C522.003 166.261 523.753 169.205 527.251 169.888V172.704L514.323 180C512.446 179.232 510.697 177.995 509.075 176.288C507.454 174.496 506.643 172.832 506.643 171.296V100.512C506.643 95.3067 504.894 92.3627 501.395 91.68V88.864L514.323 81.568C516.201 82.336 517.95 83.616 519.571 85.408C521.193 87.1147 522.003 88.736 522.003 90.272ZM566.128 107.04C566.555 107.04 567.622 107.723 569.328 109.088C571.035 110.368 572.742 112.203 574.448 114.592C576.155 116.896 577.008 119.157 577.008 121.376V142.88C577.008 144.416 574.747 146.293 570.224 148.512C565.702 150.731 561.307 152.565 557.04 154.016C552.859 155.381 550.598 156.064 550.256 156.064C550.256 162.635 553.115 166.688 558.832 168.224C561.648 168.907 565.019 169.248 568.944 169.248V172.96C554.95 177.653 547.483 180 546.544 180C543.984 180 541.382 178.208 538.736 174.624C536.091 170.955 534.768 166.688 534.768 161.824V118.816C534.768 118.219 539.632 116.128 549.36 112.544C559.088 108.875 564.678 107.04 566.128 107.04ZM561.648 127.392C561.648 125.003 561.094 122.997 559.984 121.376C558.875 119.669 557.467 118.816 555.76 118.816C554.054 118.816 552.176 119.456 550.128 120.736V150.304C557.808 148.171 561.648 143.563 561.648 136.48V127.392Z" fill="#38243D"/>
</svg>
