<svg width="584" height="238" viewBox="0 0 584 238" fill="none" xmlns="http://www.w3.org/2000/svg">
<path d="M76.8164 0.469641C76.3342 0.851489 76.0931 1.38183 75.7314 2.84559C75.1046 5.37003 74.4536 6.83379 73.2722 8.44604C71.4398 10.9281 68.6671 12.6888 65.364 13.4737C63.194 13.9828 62.3502 14.3647 62.0126 14.9799C61.2652 16.4436 62.0126 17.1861 65.1711 18.0347C68.5224 18.9469 69.4869 19.456 71.705 21.3653C73.5133 22.9351 75.0081 25.5019 75.7314 28.3022C76.1654 29.9993 76.3583 30.4236 76.9852 30.869C77.9014 31.5479 78.8658 31.5479 79.782 30.869C80.3606 30.4448 80.5535 30.0629 80.7946 28.9174C81.2527 26.7111 82.1689 24.42 83.0369 23.1684C84.8934 20.5803 88.0759 18.459 91.0415 17.8438C92.9703 17.4407 93.4767 17.2073 93.9348 16.4649C94.7545 15.1072 93.8142 14.0465 91.3067 13.4737C87.9554 12.71 85.2791 11.0765 83.4226 8.65817C82.193 7.06714 81.976 6.60043 81.0839 3.6305C80.5294 1.84854 80.1677 1.06363 79.6855 0.618137C78.8417 -0.14556 77.7085 -0.209202 76.8164 0.469641Z" fill="#38243D"/>
<path d="M29.2051 81.5087C27.5021 80.9895 24.4369 74.6557 25.7992 53.4739H51.9108L76.887 69.0488L91.6457 59.7038L131.948 50.8781V81.5087L87.6722 93.9686L153.519 126.157V196.763L76.887 236.219L5.36414 196.763V126.157L64.3989 96.5644V89.2961L29.2051 81.5087Z" fill="#E6A74A" stroke="white"/>
<path d="M49.4031 24.8018C48.9691 25.12 48.6557 25.714 48.2699 27.0293C47.6913 28.9173 46.5099 30.8053 45.2079 31.866C44.4605 32.46 42.2423 33.5207 41.7119 33.5207C41.0609 33.5419 39.3491 34.348 39.108 34.7511C38.7222 35.3875 39.1803 36.2361 40.0965 36.5755C40.5305 36.7452 41.519 37.1058 42.3147 37.3604C45.6178 38.4635 47.3537 40.4152 48.6075 44.4034C48.9209 45.358 49.162 45.6974 49.6924 45.9308C51.0185 46.546 52.007 45.6338 52.4892 43.3639C52.7062 42.3032 53.6465 40.6485 54.6351 39.5666C55.72 38.3999 57.022 37.6362 59.1196 36.9361C61.0725 36.3209 61.6994 35.7057 61.4342 34.7511C61.2654 34.1995 60.735 33.9238 58.9267 33.5207C57.3836 33.1813 55.0449 31.6751 54.0082 30.3386C53.4778 29.7022 52.8509 28.493 52.5857 27.6869C51.8382 25.5231 51.6213 25.0564 51.0426 24.717C50.3916 24.2927 50.1264 24.3139 49.4031 24.8018Z" fill="#38243D"/>
<path d="M105.219 24.611C104.568 24.8443 104.326 25.2474 103.941 26.7324C103.29 29.2356 101.409 31.654 99.2391 32.7783C98.7087 33.0541 97.6237 33.4359 96.8281 33.6269C95.3815 33.9875 94.2965 34.7088 94.2965 35.3452C94.2965 35.9392 95.4297 36.6604 96.9486 37.0423C100.252 37.8484 102.711 40.0546 103.724 43.1519C104.471 45.4217 104.64 45.7399 105.267 46.0369C105.701 46.2491 105.942 46.2491 106.496 46.0157C107.051 45.7824 107.292 45.4429 107.63 44.4459C109.173 39.991 111.005 38.1242 114.79 37.1271C116.574 36.6604 117.201 36.1937 117.201 35.3876C117.201 34.6875 116.599 34.2421 114.911 33.7329C111.174 32.6086 109.148 30.7206 108.064 27.3688C107.388 25.311 107.147 24.9292 106.424 24.6322C106.111 24.5049 105.821 24.3988 105.797 24.4201C105.773 24.4201 105.508 24.5049 105.219 24.611Z" fill="#38243D"/>
<path d="M23.0263 47.3522C22.737 47.4583 22.2789 47.925 21.9896 48.3705C21.5074 49.1342 21.4832 49.4524 21.4832 54.2679C21.4832 57.0894 21.3868 59.4229 21.2904 59.4865C21.1698 59.5502 20.0366 59.7835 18.7347 60.0168C15.7691 60.5472 14.2984 61.1836 13.7197 62.1594C13.3098 62.8595 13.2857 63.4959 13.3339 72.0239L13.4063 81.1458L14.0814 82.1429C15.3833 84.1157 16.3718 84.4764 23.6532 85.6007C37.9747 87.8282 47.6912 89.7798 56.6844 92.2831C58.7338 92.8558 60.9037 93.4286 61.4582 93.5559L62.5191 93.7893L61.0966 94.553C56.9737 96.7592 35.2985 106.793 16.6612 115.152C12.6106 116.955 8.3431 118.928 7.13758 119.5C3.42458 121.346 1.49576 123.425 0.772444 126.395C0.579562 127.201 0.50723 137.023 0.50723 161.504C0.50723 198.925 0.434899 196.867 2.00207 199.455C2.84594 200.855 4.60599 202.362 6.55893 203.359C7.28224 203.74 11.815 206.032 16.6612 208.492C21.5074 210.932 28.3306 214.39 31.8507 216.172C35.3708 217.954 39.5901 220.096 41.2537 220.945C46.6304 223.639 54.418 227.648 63.604 232.379C73.3205 237.407 76.1414 238.361 79.8785 237.895C81.8797 237.64 85.3757 236.24 89.7156 233.97C91.114 233.228 93.5009 231.997 95.0198 231.234C96.5388 230.449 102.253 227.542 107.678 224.785C113.127 222.006 118.383 219.333 119.371 218.824C120.36 218.314 126.653 215.111 133.355 211.717C140.058 208.301 146.52 205.013 147.725 204.398C148.931 203.783 150.353 203.04 150.884 202.743C152.186 202.022 153.946 200.24 154.693 198.925C156.091 196.401 156.043 197.801 155.971 160.74L155.899 126.756L155.223 125.292C154.331 123.34 152.981 121.791 151.149 120.646C150.305 120.116 147.026 118.525 143.843 117.103C137.719 114.345 122.144 107.26 113.103 103.102C101.072 97.5865 93.8143 94.0438 93.8143 93.7256C93.8143 93.6408 94.0554 93.5559 94.3206 93.5559C94.61 93.5559 96.8522 92.9831 99.3356 92.3043C109.269 89.5041 115.128 88.3373 132.873 85.6007C140.275 84.4552 141.239 84.0945 142.445 81.9307L143.12 80.7215L143.192 71.8754C143.265 63.3686 143.241 62.9868 142.782 62.1807C142.059 60.9503 140.588 60.4199 135.983 59.7411L135.091 59.5926L134.995 54.3528C134.898 48.6462 134.778 48.1583 133.452 47.3734C132.897 47.0552 132.608 47.0552 130.631 47.2886C125.085 47.9674 116.309 49.6645 109.968 51.2556C96.1771 54.7558 86.0267 58.744 80.5295 62.8383C78.2149 64.5566 77.9979 64.6415 77.0817 64.0475C76.6719 63.7929 75.7075 63.0929 74.96 62.4989C70.9095 59.4017 64.1586 56.3469 55.286 53.6527C46.558 51.0222 35.7807 48.6462 26.9804 47.4158C24.28 47.0552 23.7255 47.034 23.0263 47.3522ZM33.225 55.6044C45.0873 57.5773 55.0449 60.2926 62.8566 63.6444C68.619 66.1264 72.2114 68.7569 75.1529 72.6391C76.5995 74.5483 77.3711 75.0574 78.5525 74.7817C79.4687 74.5907 79.6133 74.4635 81.518 72.236C86.3401 66.5931 93.6214 62.7322 105.87 59.3592C112.066 57.6621 124.266 55.1589 126.436 55.1589C126.821 55.1589 126.846 55.7317 126.797 65.0657L126.725 74.9726L122.144 75.5454C107.895 77.3061 96.5629 79.8518 89.6432 82.8641C86.7259 84.1158 85.1828 85.0492 83.1334 86.7463L81.7591 87.8918H74.309L72.6937 86.5766C70.7166 84.9431 69.1253 84.0309 65.9669 82.7156C58.2515 79.5336 46.7268 77.0516 30.8863 75.1423L29.5602 74.9938L29.4879 65.0657L29.4397 55.1589H30.0183C30.3559 55.1589 31.8025 55.3498 33.225 55.6044ZM73.6581 98.6472C74.1162 99.0503 74.1644 99.4109 74.309 103.59C74.4778 108.342 74.309 110.124 73.6581 110.76C72.9348 111.46 70.8372 111.969 65.4605 112.754C61.0966 113.391 48.728 115.258 38.7222 116.785C34.1653 117.485 27.3662 118.588 26.8599 118.715C26.5464 118.8 26.3053 118.8 26.3053 118.737C26.3053 118.673 30.1871 116.827 34.9368 114.642C39.6625 112.457 47.0161 109.042 51.2595 107.069C71.4881 97.6502 70.8372 97.926 72.332 98.1169C72.7901 98.1593 73.3928 98.4139 73.6581 98.6472ZM88.8717 99.6018C90.6077 100.344 92.874 101.384 93.9349 101.893C94.9957 102.402 99.8178 104.672 104.664 106.921C109.51 109.169 114.814 111.651 116.478 112.436C118.142 113.221 121.614 114.833 124.193 116.043C126.773 117.252 129.112 118.376 129.377 118.546C129.835 118.822 129.787 118.843 129.015 118.715C127.617 118.482 118.817 117.124 114.429 116.467C112.186 116.127 106.906 115.321 102.735 114.685C82.3378 111.524 83.2058 111.715 82.3137 110.569C81.9279 110.06 81.8797 109.487 81.8797 104.99C81.9038 99.5806 82.0485 98.8806 83.1817 98.329C84.1702 97.8411 85.4721 98.1169 88.8717 99.6018ZM69.4629 119.331C69.4629 119.606 68.5708 120.964 66.3285 124.104C65.0507 125.907 63.2665 128.431 62.3503 129.725C61.4582 130.998 59.8669 133.247 58.8543 134.711C57.8176 136.174 55.4789 139.505 53.6706 142.136C51.8623 144.766 49.6441 147.948 48.7521 149.242C44.147 155.861 39.8312 162.098 36.4799 166.956C32.1882 173.214 31.5373 174.062 31.0068 174.253C30.1389 174.55 30.2594 174.762 27.4626 167.592C24.7381 160.507 16.9987 141.096 15.0458 136.408C12.249 129.704 11.6944 128.177 11.9838 127.922C12.1043 127.816 14.1055 127.434 16.4201 127.095C20.3501 126.501 32.2365 124.698 46.558 122.513C52.6579 121.579 66.4973 119.543 67.8957 119.373C69.1253 119.225 69.4629 119.225 69.4629 119.331ZM92.4883 120.073C94.8752 120.434 102.205 121.537 108.763 122.534C129.835 125.716 133.138 126.204 137.936 126.862C144.109 127.731 144.446 127.795 144.446 128.453C144.446 128.75 144.109 129.704 143.723 130.595C143.313 131.486 142.517 133.374 141.914 134.796C139.118 141.648 133.162 156.391 132.029 159.319C129.908 164.749 126.219 173.871 126.026 174.147C125.471 174.932 125.423 174.868 117.37 163.349C103.169 143.027 98.7087 136.684 92.9705 128.665C88.1243 121.919 86.5812 119.606 86.75 119.373C86.8223 119.288 87.1599 119.246 87.4974 119.309C87.8591 119.373 90.1013 119.713 92.4883 120.073ZM79.4204 122.449C80.2402 123.34 82.4101 126.352 88.5101 135.029C90.1496 137.362 92.1507 140.226 92.9705 141.393C94.9475 144.193 103.772 156.794 106.183 160.273C107.244 161.78 109.317 164.749 110.812 166.85C116.623 175.059 118.744 178.135 119.323 179.217C120.046 180.617 119.926 181.275 118.865 181.466C117.852 181.636 39.4696 181.636 38.023 181.466C37.372 181.381 36.8174 181.19 36.7451 181.02C36.4076 180.236 37.4684 178.538 45.1596 167.486C45.8829 166.425 48.1975 163.095 50.2951 160.061C55.5512 152.467 61.6029 143.769 63.5558 140.969C65.0989 138.741 66.6902 136.471 71.9221 128.983C75.2011 124.252 76.4308 122.576 77.0094 122.025C77.7568 121.304 78.4801 121.431 79.4204 122.449ZM9.2834 141.966C12.2972 149.688 21.0734 171.856 23.3397 177.457C24.4247 180.172 24.0389 182.315 22.1583 183.842C21.1457 184.69 9.40395 190.694 8.65653 190.758L8.10199 190.821L8.07788 165.195C8.07788 151.109 8.1261 139.59 8.19844 139.59C8.29488 139.59 8.77708 140.672 9.2834 141.966ZM148.207 191.097C148.014 191.267 147.122 190.906 144.952 189.739C143.747 189.103 142.397 188.403 141.963 188.191C139.214 186.812 135.381 184.775 134.464 184.203C133.211 183.418 132.487 182.293 132.27 180.83C132.102 179.642 131.668 180.766 142.035 154.864C143.795 150.494 145.893 145.233 146.688 143.196L148.183 139.484L148.256 165.237C148.28 179.408 148.256 191.033 148.207 191.097ZM116.478 188.679C116.478 189.018 115.875 189.739 111.728 194.343C110.089 196.146 107.461 199.095 105.845 200.898C104.23 202.701 101.626 205.607 100.059 207.368C94.3206 213.796 88.6065 220.224 84.2666 225.145C81.8074 227.903 79.5651 230.364 79.2999 230.597C78.3837 231.361 76.8406 231.085 75.8521 229.982C75.3458 229.43 67.5581 220.605 61.7234 213.944C56.8773 208.429 49.7165 200.346 42.0494 191.691C40.6992 190.164 39.566 188.785 39.566 188.636C39.566 188.445 47.426 188.382 78.022 188.382C110.812 188.382 116.478 188.424 116.478 188.679ZM29.7531 189.739C30.8622 190.142 31.8507 191.076 34.8645 194.512C36.3352 196.167 39.3731 199.604 41.6154 202.149C45.4972 206.498 47.6671 208.959 51.0184 212.756C51.8141 213.669 53.5982 215.726 54.9966 217.339C56.395 218.951 57.9863 220.775 58.565 221.39C59.5053 222.43 59.5535 222.96 58.6373 222.239C58.4203 222.069 57.3354 221.475 56.2022 220.902C55.069 220.308 50.6809 218.06 46.4375 215.854C35.0815 209.977 27.4867 206.074 20.0607 202.256C16.4442 200.41 13.2134 198.67 12.8758 198.395C12.249 197.885 12.2731 197.313 12.9964 196.613C13.1893 196.4 15.6485 195.085 18.4453 193.664C21.2421 192.243 24.2318 190.715 25.0998 190.248C26.8357 189.358 28.3065 189.188 29.7531 189.739ZM130.824 190.121C131.354 190.418 133.428 191.5 135.405 192.518C143.65 196.74 143.578 196.719 143.819 197.44C144.109 198.352 143.916 198.522 141.36 199.795C139.552 200.686 136.007 202.51 123.952 208.705C122.699 209.341 120.408 210.508 118.889 211.293C117.37 212.078 115.2 213.181 114.067 213.775C112.934 214.347 109.366 216.193 106.111 217.848C102.856 219.524 99.4079 221.306 98.4194 221.815C97.4309 222.324 96.587 222.706 96.5147 222.663C96.4183 222.557 101.53 216.723 111.656 205.353C115.538 200.983 119.998 195.955 121.565 194.215C125.64 189.612 125.953 189.4 128.413 189.506C129.474 189.548 130.125 189.718 130.824 190.121Z" fill="#38243D"/>
<path d="M63.8691 149.454C61.6269 150.197 59.5293 152.021 58.2514 154.291C56.8289 156.879 57.2147 157.834 59.6739 157.834C60.4937 157.834 61.2652 157.749 61.4099 157.664C61.5545 157.579 62.0367 156.9 62.4948 156.158C63.8691 153.867 65.8462 152.976 67.8473 153.761C69.7762 154.524 70.9093 156.306 70.4271 157.876C70.0173 159.191 68.2572 161.016 62.3502 166.298L56.6842 171.368V173.044C56.6842 175.759 55.8645 175.569 66.1355 175.484C73.0793 175.42 74.9599 175.356 75.2251 175.123C75.6109 174.784 75.6109 171.241 75.2251 170.88C75.1046 170.774 72.8141 170.668 69.8726 170.626C67.0758 170.605 64.713 170.583 64.6407 170.583C64.5683 170.562 66.2319 169.013 68.3536 167.125C72.8141 163.116 74.333 161.313 75.0563 159.255C76.3583 155.437 74.4777 151.576 70.4754 149.836C69.3181 149.348 68.7635 149.242 66.9311 149.2C65.5086 149.157 64.4478 149.242 63.8691 149.454Z" fill="#38243D"/>
<path d="M85.9303 149.433C82.5789 150.388 80.3367 152.742 79.0588 156.667C78.6007 158.131 78.5284 158.873 78.5043 161.97C78.5043 166.722 79.0106 168.632 81.0841 171.538C83.1335 174.444 85.6168 175.696 89.1611 175.675C93.2116 175.653 96.6112 172.726 98.2024 167.868C98.6846 166.404 98.757 165.746 98.757 162.076C98.7329 158.109 98.7088 157.876 98.0819 156.243C97.6961 155.309 97.1175 154.121 96.7558 153.591C95.8396 152.191 94.0072 150.557 92.5606 149.879C91.4756 149.348 90.9693 149.242 89.1128 149.2C87.7385 149.157 86.5571 149.242 85.9303 149.433ZM90.1255 154.164C93.1393 155.415 94.5377 160.952 93.1875 166.277C92.1748 170.286 89.595 171.941 86.7741 170.371C85.3757 169.586 84.2908 167.762 83.905 165.471C83.5192 163.264 83.7362 158.661 84.2908 157.303C84.8453 155.924 85.9544 154.524 86.7741 154.143C87.6421 153.718 89.0887 153.718 90.1255 154.164Z" fill="#38243D"/>
<path d="M187.136 91.936V89.248L200.448 81.44H205.44L220.16 127.648L222.208 126.752V100C222.208 97.5253 221.781 95.6053 220.928 94.24C220.075 92.7893 219.221 91.936 218.368 91.68L216.96 91.424V88.608L229.248 81.312C229.931 81.312 231.381 82.2933 233.6 84.256C235.819 86.1333 236.928 87.9253 236.928 89.632V126.24C236.928 127.691 232.149 130.123 222.592 133.536V157.6C222.592 160.416 222.891 162.379 223.488 163.488C224.171 164.512 225.579 165.024 227.712 165.024V168.608L201.6 180L199.552 175.904C203.221 175.051 205.483 173.003 206.336 169.76C206.933 167.456 207.232 164.683 207.232 161.44V134.432L194.432 96.032C194.005 94.752 193.365 93.8133 192.512 93.216C191.659 92.5333 190.891 92.1493 190.208 92.064C189.525 91.9787 188.501 91.936 187.136 91.936ZM249.15 161.312V118.816C249.15 118.219 254.014 116.128 263.742 112.544C273.47 108.875 279.059 107.04 280.51 107.04C281.961 107.04 284.137 108.789 287.038 112.288C290.025 115.787 291.518 118.944 291.518 121.76V168.096C291.518 168.779 286.825 170.955 277.438 174.624C268.137 178.208 262.419 180 260.286 180C258.238 180 255.849 178.165 253.118 174.496C250.473 170.827 249.15 166.432 249.15 161.312ZM271.038 168.224C272.659 168.224 274.323 167.541 276.03 166.176V128.416C276.03 122.101 273.854 118.944 269.502 118.944C267.795 118.944 266.131 119.584 264.51 120.864V158.752C264.51 165.067 266.686 168.224 271.038 168.224ZM319.635 160.032C319.635 162.251 320.275 164.085 321.555 165.536C322.92 166.901 324.414 167.584 326.035 167.584C327.656 167.584 329.363 166.944 331.155 165.664V125.856C331.155 120.651 329.406 117.707 325.907 117.024V114.208L338.835 106.912C340.712 107.68 342.462 108.96 344.083 110.752C345.704 112.459 346.515 114.08 346.515 115.616V159.008C346.515 161.824 347.112 164.256 348.307 166.304C349.502 168.352 350.995 169.376 352.787 169.376V172.192C352.19 172.277 347.539 174.88 338.835 180C336.872 179.147 335.08 177.909 333.459 176.288C331.923 174.581 331.155 172.96 331.155 171.424L315.155 180C314.899 179.829 314.515 179.616 314.003 179.36C313.491 179.019 312.595 178.379 311.315 177.44C310.12 176.416 309.054 175.349 308.115 174.24C305.555 171.424 304.275 168.224 304.275 164.64V125.856C304.275 121.163 302.184 118.389 298.003 117.536V114.72L311.955 106.912C313.832 107.68 315.582 108.96 317.203 110.752C318.824 112.459 319.635 114.08 319.635 115.616V160.032ZM353.003 114.72L367.083 107.04C367.68 107.211 368.363 107.467 369.131 107.808C369.984 108.064 371.094 108.875 372.459 110.24C373.91 111.605 374.635 113.141 374.635 114.848C375.062 114.677 377.067 113.355 380.651 110.88C384.32 108.32 386.667 107.04 387.691 107.04C390.422 107.04 392.982 108.832 395.371 112.416C397.76 116 398.955 119.285 398.955 122.272V128.544L385.771 135.968L383.595 134.176C383.595 127.008 382.912 122.912 381.547 121.888C380.011 120.779 377.707 120.224 374.635 120.224V161.056C374.635 166.261 376.384 169.205 379.883 169.888V172.704L366.955 180C365.078 179.232 363.328 177.995 361.707 176.288C360.086 174.496 359.275 172.832 359.275 171.296V128.8C359.275 125.045 358.592 122.229 357.227 120.352C355.947 118.475 354.539 117.536 353.003 117.536V114.72ZM417.116 166.944V99.104L421.084 95.264H413.02C407.815 95.264 404.871 96.672 404.188 99.488H401.372L394.076 88.992C395.1 87.3707 396.423 85.92 398.044 84.64C399.665 83.36 401.244 82.72 402.78 82.72H436.572C441.777 82.72 444.721 81.312 445.404 78.496H448.22L455.516 88.992C454.492 90.6133 453.169 92.064 451.548 93.344C449.927 94.624 448.348 95.264 446.812 95.264H432.476V160.288C432.476 163.445 432.817 165.707 433.5 167.072C434.183 168.437 435.591 169.12 437.724 169.12V173.088L411.484 184.096L409.436 180C411.313 180 413.105 178.891 414.812 176.672C416.348 174.539 417.116 171.296 417.116 166.944ZM494.33 123.936V160.16C494.33 163.317 494.842 165.536 495.866 166.816C496.89 168.011 498.469 168.864 500.602 169.376V172.192L486.65 180C484.773 179.232 483.023 177.995 481.402 176.288C479.781 174.496 478.97 172.875 478.97 171.424L462.97 180C462.714 179.829 462.33 179.616 461.818 179.36C461.306 179.019 460.41 178.379 459.13 177.44C457.935 176.416 456.869 175.349 455.93 174.24C453.37 171.424 452.09 168.224 452.09 164.64V143.648C452.09 142.283 454.309 140.533 458.746 138.4C463.183 136.267 467.621 134.517 472.058 133.152L478.842 130.976C478.842 126.112 477.562 122.741 475.002 120.864C472.442 118.901 467.493 117.92 460.154 117.92V114.08C473.381 109.387 480.805 107.04 482.426 107.04C485.242 107.04 487.93 108.875 490.49 112.544C493.05 116.213 494.33 120.011 494.33 123.936ZM467.45 160.032C467.45 162.251 468.09 164.085 469.37 165.536C470.735 166.901 472.229 167.584 473.85 167.584C475.471 167.584 477.178 166.944 478.97 165.664V136.736C476.837 137.504 475.215 138.144 474.106 138.656C473.082 139.168 471.973 139.979 470.778 141.088C468.559 143.136 467.45 146.677 467.45 151.712V160.032ZM522.51 90.272V161.056C522.51 166.261 524.259 169.205 527.758 169.888V172.704L514.83 180C512.953 179.232 511.203 177.995 509.582 176.288C507.961 174.496 507.15 172.832 507.15 171.296V100.512C507.15 95.3067 505.401 92.3627 501.902 91.68V88.864L514.83 81.568C516.707 82.336 518.457 83.616 520.078 85.408C521.699 87.1147 522.51 88.736 522.51 90.272ZM566.635 107.04C567.062 107.04 568.128 107.723 569.835 109.088C571.542 110.368 573.248 112.203 574.955 114.592C576.662 116.896 577.515 119.157 577.515 121.376V142.88C577.515 144.416 575.254 146.293 570.731 148.512C566.208 150.731 561.814 152.565 557.547 154.016C553.366 155.381 551.104 156.064 550.763 156.064C550.763 162.635 553.622 166.688 559.339 168.224C562.155 168.907 565.526 169.248 569.451 169.248V172.96C555.456 177.653 547.99 180 547.051 180C544.491 180 541.888 178.208 539.243 174.624C536.598 170.955 535.275 166.688 535.275 161.824V118.816C535.275 118.219 540.139 116.128 549.867 112.544C559.595 108.875 565.184 107.04 566.635 107.04ZM562.155 127.392C562.155 125.003 561.6 122.997 560.491 121.376C559.382 119.669 557.974 118.816 556.267 118.816C554.56 118.816 552.683 119.456 550.635 120.736V150.304C558.315 148.171 562.155 143.563 562.155 136.48V127.392Z" fill="#E6A74A"/>
</svg>
