<svg width="980" height="300" viewBox="0 0 980 300" fill="none" xmlns="http://www.w3.org/2000/svg">
<path d="M96.1888 0.592031C95.581 1.07335 95.2771 1.74186 94.8212 3.58692C94.031 6.769 93.2105 8.61406 91.7213 10.6463C89.4116 13.7749 85.9166 15.9943 81.753 16.9837C79.0178 17.6255 77.9541 18.1068 77.5286 18.8823C76.5865 20.7273 77.5286 21.6632 81.5098 22.7328C85.7342 23.8827 86.9499 24.5244 89.7459 26.931C92.0252 28.9098 93.9094 32.1454 94.8212 35.6751C95.3682 37.8143 95.6114 38.3491 96.4015 38.9106C97.5564 39.7663 98.772 39.7663 99.9269 38.9106C100.656 38.3758 100.899 37.8945 101.203 36.4505C101.781 33.6695 102.936 30.7816 104.03 29.2039C106.37 25.9417 110.381 23.2676 114.12 22.4922C116.551 21.9841 117.189 21.69 117.767 20.7541C118.8 19.0427 117.615 17.7057 114.454 16.9837C110.23 16.0211 106.856 13.9621 104.516 10.9137C102.966 8.9082 102.693 8.31992 101.568 4.57631C100.869 2.33014 100.413 1.34075 99.8053 0.779212C98.7417 -0.183432 97.3133 -0.263652 96.1888 0.592031Z" fill="#38243D"/>
<path d="M36.1745 102.742C34.0279 102.088 30.1641 94.1038 31.8814 67.404H64.7951L96.2778 87.0362L114.881 75.2569L165.683 64.132V102.742L109.873 118.448L192.872 159.021V248.02L96.2778 297.755L6.12286 248.02V159.021L80.5365 121.72V112.558L36.1745 102.742Z" fill="#E6A74A" stroke="white"/>
<path d="M61.6341 31.2628C61.087 31.6639 60.692 32.4126 60.2057 34.0705C59.4763 36.4504 57.9871 38.8302 56.346 40.1672C55.4039 40.916 52.6079 42.253 51.9393 42.253C51.1187 42.2797 48.961 43.2958 48.657 43.8039C48.1708 44.6061 48.7482 45.6757 49.9031 46.1035C50.4501 46.3175 51.6962 46.772 52.6991 47.0929C56.8627 48.4834 59.0508 50.9435 60.6312 55.9706C61.0263 57.1739 61.3302 57.6018 61.9988 57.8959C63.6703 58.6714 64.9163 57.5216 65.5242 54.6604C65.7977 53.3234 66.9829 51.2376 68.229 49.8739C69.5966 48.4032 71.2377 47.4405 73.8818 46.5581C76.3434 45.7827 77.1336 45.0072 76.7993 43.8039C76.5866 43.1086 75.918 42.761 73.6386 42.253C71.6936 41.8251 68.7456 39.9266 67.4388 38.2419C66.7702 37.4397 65.98 35.9156 65.6457 34.8994C64.7036 32.1719 64.4301 31.5837 63.7007 31.1558C62.8801 30.621 62.5458 30.6478 61.6341 31.2628Z" fill="#38243D"/>
<path d="M131.99 31.0222C131.169 31.3164 130.865 31.8244 130.379 33.6962C129.558 36.8516 127.188 39.8999 124.453 41.3172C123.784 41.6648 122.417 42.1461 121.414 42.3868C119.59 42.8413 118.223 43.7505 118.223 44.5527C118.223 45.3014 119.651 46.2106 121.566 46.6919C125.729 47.708 128.829 50.489 130.105 54.3931C131.048 57.2543 131.26 57.6554 132.051 58.0297C132.598 58.2971 132.901 58.2971 133.6 58.003C134.299 57.7088 134.603 57.281 135.029 56.0242C136.974 50.4088 139.284 48.0557 144.055 46.7989C146.304 46.2106 147.094 45.6223 147.094 44.6062C147.094 43.7238 146.334 43.1622 144.207 42.5205C139.496 41.1032 136.944 38.7234 135.576 34.4984C134.725 31.9046 134.421 31.4233 133.509 31.049C133.114 30.8885 132.75 30.7548 132.719 30.7816C132.689 30.7816 132.354 30.8885 131.99 31.0222Z" fill="#38243D"/>
<path d="M28.386 59.6877C28.0213 59.8214 27.4439 60.4097 27.0792 60.9712C26.4714 61.9339 26.441 62.335 26.441 68.405C26.441 71.9614 26.3194 74.9028 26.1979 74.983C26.0459 75.0633 24.6175 75.3574 22.9764 75.6515C19.2383 76.32 17.3844 77.1222 16.655 78.3523C16.1384 79.2347 16.108 80.0369 16.1688 90.7864L16.2599 102.285L17.1109 103.541C18.752 106.028 19.9981 106.483 29.1762 107.9C47.2286 110.708 59.4763 113.168 70.8122 116.323C73.3954 117.045 76.1306 117.767 76.8296 117.928L78.1668 118.222L76.3738 119.184C71.1769 121.965 43.8552 134.613 20.3628 145.149C15.257 147.422 9.8778 149.909 8.35823 150.631C3.67799 152.957 1.24669 155.578 0.334954 159.321C0.0918248 160.337 0.000651111 172.718 0.000651111 203.576C0.000651111 250.746 -0.0905225 248.152 1.88491 251.414C2.9486 253.179 5.16716 255.078 7.62885 256.334C8.54058 256.816 14.2541 259.704 20.3628 262.806C26.4714 265.881 35.0721 270.239 39.5092 272.485C43.9463 274.732 49.2648 277.432 51.3618 278.502C58.139 281.898 67.9554 286.952 79.5345 292.915C91.7821 299.252 95.3379 300.456 100.049 299.867C102.571 299.546 106.978 297.782 112.448 294.92C114.211 293.984 117.22 292.434 119.134 291.471C121.049 290.482 128.252 286.818 135.09 283.342C141.958 279.839 148.583 276.47 149.829 275.828C151.075 275.186 159.007 271.148 167.456 266.87C175.905 262.565 184.05 258.42 185.569 257.645C187.089 256.869 188.882 255.933 189.551 255.559C191.192 254.65 193.41 252.404 194.352 250.746C196.115 247.564 196.054 249.329 195.963 202.614L195.872 159.776L195.021 157.931C193.897 155.471 192.195 153.519 189.885 152.075C188.821 151.406 184.688 149.401 180.676 147.609C172.957 144.133 153.324 135.202 141.928 129.961C126.762 123.008 117.615 118.543 117.615 118.142C117.615 118.035 117.919 117.928 118.253 117.928C118.618 117.928 121.444 117.206 124.574 116.35C137.095 112.82 144.48 111.35 166.848 107.9C176.179 106.456 177.394 106.002 178.914 103.274L179.765 101.75L179.856 90.5992C179.947 79.8765 179.917 79.3951 179.339 78.379C178.427 76.8281 176.574 76.1596 170.769 75.3039L169.644 75.1167L169.523 68.5119C169.401 61.3188 169.249 60.7038 167.578 59.7144C166.879 59.3133 166.514 59.3133 164.022 59.6075C157.032 60.4632 145.97 62.6024 137.977 64.6079C120.593 69.02 107.798 74.0471 100.869 79.208C97.9515 81.3739 97.678 81.4809 96.5231 80.7321C96.0065 80.4113 94.7908 79.5289 93.8487 78.7801C88.743 74.8761 80.2335 71.0255 69.0495 67.6295C58.0479 64.3137 44.463 61.3188 33.3702 59.7679C29.9664 59.3133 29.2674 59.2866 28.386 59.6877ZM41.2415 70.0896C56.194 72.5764 68.7456 75.9992 78.5923 80.2241C85.8558 83.3527 90.3841 86.6684 94.0919 91.5619C95.9153 93.9685 96.8878 94.6103 98.377 94.2626C99.5319 94.022 99.7142 93.8615 102.115 91.0538C108.193 83.941 117.372 79.0743 132.81 74.8226C140.621 72.6834 155.999 69.5281 158.734 69.5281C159.22 69.5281 159.251 70.25 159.19 82.0157L159.099 94.5033L153.324 95.2253C135.363 97.4447 121.079 100.654 112.357 104.451C108.68 106.028 106.735 107.205 104.151 109.344L102.419 110.788H93.0282L90.9919 109.13C88.4999 107.071 86.494 105.921 82.5128 104.263C72.7876 100.252 58.2606 97.1238 38.2936 94.7172L36.6221 94.53L36.5309 82.0157L36.4701 69.5281H37.1995C37.625 69.5281 39.4484 69.7687 41.2415 70.0896ZM92.2076 124.345C92.785 124.853 92.8458 125.308 93.0282 130.576C93.2409 136.565 93.0281 138.812 92.2076 139.614C91.2958 140.496 88.6518 141.138 81.8746 142.127C76.3738 142.93 60.7831 145.283 48.1707 147.208C42.4268 148.09 33.8565 149.481 33.2182 149.641C32.8232 149.748 32.5192 149.748 32.5192 149.668C32.5192 149.588 37.4122 147.262 43.3993 144.507C49.356 141.753 58.6253 137.448 63.9742 134.961C89.4724 123.088 88.6518 123.436 90.5361 123.677C91.1135 123.73 91.8733 124.051 92.2076 124.345ZM111.384 125.549C113.573 126.484 116.429 127.795 117.767 128.436C119.104 129.078 125.182 131.939 131.291 134.774C137.399 137.608 144.085 140.737 146.182 141.726C148.279 142.716 152.656 144.748 155.908 146.272C159.159 147.796 162.107 149.214 162.442 149.427C163.019 149.775 162.958 149.802 161.986 149.641C160.223 149.347 149.13 147.636 143.599 146.807C140.773 146.379 134.117 145.363 128.859 144.561C103.148 140.577 104.243 140.817 103.118 139.373C102.632 138.731 102.571 138.009 102.571 132.341C102.601 125.522 102.784 124.639 104.212 123.944C105.458 123.329 107.099 123.677 111.384 125.549ZM86.9195 150.417C86.9195 150.764 85.795 152.476 82.9687 156.433C81.3579 158.706 79.109 161.888 77.9541 163.52C76.8296 165.124 74.8238 167.958 73.5474 169.803C72.2406 171.649 69.2926 175.847 67.0133 179.162C64.7339 182.478 61.9379 186.489 60.8135 188.12C55.0087 196.463 49.5687 204.325 45.3443 210.448C39.9347 218.337 39.1141 219.406 38.4455 219.647C37.3515 220.021 37.5034 220.289 33.978 211.251C30.5438 202.319 20.7882 177.852 18.3266 171.943C14.8012 163.493 14.1022 161.567 14.4669 161.247C14.6188 161.113 17.1413 160.632 20.0589 160.204C25.0126 159.455 39.9955 157.182 58.0479 154.428C65.7368 153.251 83.1814 150.684 84.9441 150.47C86.494 150.283 86.9195 150.283 86.9195 150.417ZM115.943 151.353C118.952 151.807 128.191 153.198 136.457 154.455C163.019 158.466 167.183 159.081 173.231 159.91C181.011 161.006 181.436 161.086 181.436 161.915C181.436 162.289 181.011 163.493 180.524 164.616C180.008 165.739 179.005 168.119 178.245 169.91C174.72 178.547 167.213 197.132 165.785 200.822C163.11 207.667 158.46 219.166 158.217 219.513C157.518 220.503 157.458 220.422 147.307 205.903C129.406 180.286 123.784 172.29 116.551 162.183C110.442 153.679 108.497 150.764 108.71 150.47C108.801 150.363 109.227 150.31 109.652 150.39C110.108 150.47 112.934 150.898 115.943 151.353ZM99.4711 154.348C100.504 155.471 103.24 159.268 110.929 170.205C112.995 173.146 115.518 176.756 116.551 178.227C119.043 181.756 130.166 197.64 133.205 202.025C134.543 203.924 137.156 207.667 139.04 210.315C146.365 220.663 149.039 224.54 149.769 225.904C150.68 227.669 150.528 228.498 149.191 228.739C147.915 228.953 49.1129 228.953 47.2894 228.739C46.4688 228.632 45.7698 228.391 45.6786 228.177C45.2532 227.188 46.5904 225.049 56.2852 211.117C57.1969 209.78 60.1145 205.582 62.7585 201.758C69.3838 192.185 77.012 181.221 79.4737 177.692C81.4187 174.884 83.4245 172.023 90.0194 162.584C94.1526 156.621 95.7026 154.508 96.432 153.813C97.3741 152.904 98.2858 153.064 99.4711 154.348ZM11.0631 178.949C14.862 188.682 25.9244 216.625 28.7811 223.685C30.1487 227.107 29.6625 229.808 27.292 231.734C26.0155 232.803 11.215 240.371 10.2729 240.451L9.57388 240.531L9.54349 208.229C9.54349 190.474 9.60427 175.954 9.69545 175.954C9.81701 175.954 10.4248 177.317 11.0631 178.949ZM186.177 240.879C185.934 241.093 184.81 240.638 182.074 239.167C180.555 238.365 178.853 237.483 178.306 237.215C174.841 235.477 170.009 232.91 168.854 232.188C167.274 231.199 166.362 229.782 166.089 227.936C165.876 226.439 165.329 227.856 178.397 195.207C180.616 189.698 183.26 183.067 184.263 180.499L186.147 175.82L186.238 208.282C186.268 226.145 186.238 240.798 186.177 240.879ZM146.182 237.83C146.182 238.258 145.423 239.167 140.195 244.97C138.129 247.243 134.816 250.96 132.78 253.233C130.744 255.505 127.461 259.169 125.486 261.388C118.253 269.491 111.05 277.593 105.58 283.797C102.48 287.273 99.6534 290.375 99.3191 290.669C98.1643 291.631 96.2192 291.284 94.9732 289.893C94.335 289.198 84.5186 278.074 77.1639 269.678C71.0553 262.725 62.0291 252.537 52.3647 241.627C50.6628 239.702 49.2344 237.964 49.2344 237.777C49.2344 237.536 59.142 237.456 97.7084 237.456C139.04 237.456 146.182 237.509 146.182 237.83ZM36.8652 239.167C38.2632 239.675 39.5092 240.852 43.3081 245.184C45.162 247.27 48.9913 251.601 51.8177 254.81C56.7107 260.292 59.4459 263.394 63.6702 268.18C64.6732 269.33 66.9221 271.924 68.6848 273.956C70.4475 275.988 72.4533 278.288 73.1827 279.064C74.3679 280.374 74.4287 281.042 73.2739 280.133C73.0003 279.919 71.6327 279.17 70.2043 278.448C68.776 277.7 63.2448 274.865 57.8959 272.084C43.5817 264.677 34.0084 259.757 24.6479 254.944C20.0892 252.618 16.0168 250.425 15.5913 250.077C14.8012 249.435 14.8316 248.713 15.7433 247.831C15.9864 247.564 19.0863 245.906 22.6117 244.114C26.1371 242.323 29.9056 240.397 30.9997 239.809C33.1879 238.686 35.0417 238.472 36.8652 239.167ZM164.265 239.649C164.934 240.023 167.547 241.387 170.039 242.67C180.433 247.992 180.342 247.965 180.646 248.874C181.011 250.024 180.768 250.238 177.546 251.842C175.267 252.965 170.799 255.265 155.604 263.073C154.023 263.875 151.136 265.346 149.222 266.335C147.307 267.325 144.572 268.715 143.143 269.464C141.715 270.186 137.217 272.512 133.114 274.598C129.011 276.71 124.665 278.957 123.419 279.598C122.173 280.24 121.11 280.721 121.018 280.668C120.897 280.534 127.34 273.181 140.104 258.848C144.997 253.34 150.619 247.002 152.595 244.809C157.731 239.007 158.126 238.739 161.226 238.873C162.563 238.927 163.384 239.141 164.265 239.649Z" fill="#38243D"/>
<path d="M79.8686 188.388C77.0423 189.324 74.3982 191.623 72.7875 194.485C70.9944 197.747 71.4807 198.95 74.5806 198.95C75.6139 198.95 76.5864 198.843 76.7687 198.736C76.9511 198.629 77.5589 197.774 78.1363 196.838C79.8686 193.95 82.3607 192.827 84.8832 193.816C87.3145 194.779 88.7429 197.025 88.1351 199.004C87.6184 200.661 85.3998 202.961 77.954 209.619L70.8121 216.01V218.123C70.8121 221.545 69.7788 221.305 82.7254 221.198C91.4781 221.118 93.8486 221.037 94.1829 220.743C94.6692 220.315 94.6692 215.85 94.1829 215.395C94.0309 215.262 91.1438 215.128 87.4361 215.074C83.9107 215.048 80.9323 215.021 80.8412 215.021C80.75 214.994 82.847 213.042 85.5214 210.662C91.1438 205.608 93.0584 203.335 93.9702 200.742C95.6113 195.928 93.2408 191.062 88.1958 188.869C86.7371 188.254 86.0381 188.12 83.7283 188.067C81.9352 188.013 80.598 188.12 79.8686 188.388Z" fill="#38243D"/>
<path d="M107.677 188.361C103.452 189.564 100.626 192.532 99.0153 197.479C98.4378 199.324 98.3467 200.26 98.3163 204.164C98.3163 210.154 98.9545 212.561 101.568 216.224C104.151 219.888 107.282 221.465 111.749 221.439C116.855 221.412 121.14 217.722 123.146 211.598C123.754 209.753 123.845 208.924 123.845 204.298C123.815 199.298 123.784 199.004 122.994 196.945C122.508 195.768 121.778 194.271 121.322 193.602C120.168 191.837 117.858 189.778 116.034 188.923C114.667 188.254 114.029 188.12 111.688 188.067C109.956 188.013 108.467 188.12 107.677 188.361ZM112.965 194.324C116.764 195.902 118.526 202.881 116.825 209.593C115.548 214.647 112.296 216.732 108.74 214.753C106.978 213.764 105.61 211.464 105.124 208.577C104.638 205.796 104.911 199.993 105.61 198.282C106.309 196.543 107.707 194.779 108.74 194.297C109.835 193.762 111.658 193.762 112.965 194.324Z" fill="#38243D"/>
<path d="M237.079 114.132C236.49 114.746 236 115.642 236 116.161C236 116.68 239.727 123.144 244.239 130.551C248.8 137.911 258.903 154.377 266.749 167.115C274.596 179.854 281.364 190.941 281.805 191.743C282.492 193.017 282.59 196.178 282.59 218.022V242.839L283.816 243.971L284.993 245.15H296.812C307.945 245.15 308.631 245.103 309.563 244.207C310.495 243.31 310.544 242.65 310.544 218.494C310.544 194.102 310.544 193.63 311.574 191.696C312.163 190.611 317.557 181.741 323.54 172.022C329.523 162.303 338.155 148.29 342.667 140.883C347.228 133.476 352.426 124.984 354.29 122.011C356.104 119.039 357.625 116.35 357.625 116.067C357.625 115.784 357.183 114.982 356.595 114.274L355.565 113L341.343 113.142L327.071 113.283L325.894 114.698C325.257 115.453 321.775 121.634 318.195 128.381C302.795 157.443 297.156 168.012 296.861 168.342C296.714 168.531 290.437 156.971 282.982 142.629C275.528 128.286 268.76 115.831 267.976 114.934L266.504 113.283L252.331 113.142L238.158 113L237.079 114.132Z" fill="#38243D"/>
<path d="M636.478 114.085C635.841 114.982 635.694 116.869 635.694 125.455V135.741L636.92 136.873L638.097 138.052H655.948C670.268 138.052 673.947 138.194 674.388 138.666C674.78 139.138 674.927 154.141 675.026 191.507C675.173 243.074 675.173 243.688 676.154 244.396C676.987 245.009 679.243 245.103 689.297 245.15H701.459L702.636 243.924L703.862 242.65V190.658C703.862 143.667 703.96 138.619 704.647 138.336C705.088 138.194 713.426 138.052 723.234 138.052C738.78 138.052 741.183 137.958 741.821 137.298C742.508 136.684 742.606 134.939 742.606 125.597C742.606 115.548 742.508 114.557 741.723 113.849C740.889 113.094 736.524 113.047 689.003 113.047H637.214L636.478 114.085Z" fill="#38243D"/>
<path d="M842.603 114.274L841.426 115.501V179.099V242.697L842.603 243.924L843.78 245.15H854.471C865.064 245.15 865.162 245.15 866.535 244.018L867.908 242.886V179.193V115.501L866.731 114.274L865.554 113.047H854.667H843.78L842.603 114.274Z" fill="#38243D"/>
<path d="M384.451 145.129C366.354 147.913 353.211 157.302 345.854 172.682C338.008 189.101 339.871 211.464 350.317 226.326C363.902 245.764 392.641 252.652 415.838 242.084C424.224 238.262 430.403 233.167 435.455 225.901C445.214 211.889 447.028 190.988 439.966 174.192C436.828 166.785 430.648 159 424.224 154.33C420.055 151.31 412.258 147.772 406.667 146.309C402.94 145.365 400.537 145.082 394.651 144.894C390.63 144.799 386.02 144.894 384.451 145.129ZM402.351 167.257C408.825 170.229 413.974 176.693 416.279 184.76C417.554 189.195 417.554 202.028 416.279 206.699C413.091 218.305 405.146 225.429 394.651 226.137C378.271 227.269 367.041 213.351 368.12 193.253C368.61 183.864 371.111 177.212 376.114 172.022C380.92 167.021 385.333 165.37 393.425 165.558C398.624 165.7 399.31 165.841 402.351 167.257Z" fill="#38243D"/>
<path d="M616.567 145.129C610.486 146.215 605.239 148.951 600.481 153.48C598.814 155.131 597.245 156.453 596.999 156.453C596.754 156.453 596.411 154.66 596.215 152.489C595.724 146.545 596.215 146.781 583.219 146.781C573.41 146.781 572.429 146.875 571.498 147.677L570.468 148.574V195.612C570.468 242.508 570.468 242.65 571.498 243.924L572.478 245.15H583.366C589.349 245.15 594.498 244.962 594.793 244.773C596.362 243.782 596.46 242.367 596.46 215.805C596.46 186.506 596.558 185.751 599.501 180.373C601.511 176.787 605.827 172.588 609.211 170.984C613.723 168.814 617.205 168.2 623.875 168.2C628.877 168.2 630.152 168.106 630.888 167.445C631.672 166.738 631.77 165.747 631.77 156.924V147.158L630.495 146.026C629.367 144.988 628.828 144.893 624.022 144.799C621.128 144.752 617.793 144.893 616.567 145.129Z" fill="#38243D"/>
<path d="M769.383 145.129C760.457 146.498 753.395 149.612 747.804 154.613C743.39 158.576 740.497 162.775 738.633 167.87C736.23 174.475 736.868 177.589 740.742 178.344C743.096 178.816 756.141 178.674 757.514 178.202C758.25 177.919 759.084 176.929 759.721 175.56C763.056 168.342 769.088 165.134 778.603 165.511C789.196 165.983 794.688 170.276 796.552 179.429C797.288 182.873 796.944 184.666 795.424 185.185C794.836 185.421 789.735 185.846 784.046 186.129C770.609 186.836 761.291 187.827 756.779 189.054C745.646 191.979 737.015 199.103 734.318 207.595C729.904 221.513 736.721 236.941 749.962 243.169C761.193 248.453 774.777 248.736 784.39 243.877C786.4 242.886 789.49 240.668 791.697 238.64C793.855 236.705 795.767 235.29 795.964 235.431C796.16 235.62 796.552 237.46 796.846 239.536C797.729 245.386 797.141 245.15 810.039 245.15C820.043 245.15 820.975 245.056 821.76 244.254C822.495 243.452 822.544 240.763 822.446 209.718C822.299 176.268 822.25 175.985 821.171 172.305C817.787 161.029 811.657 153.763 801.701 149.14C794.885 145.979 790.471 145.082 780.613 144.894C776.052 144.799 770.952 144.894 769.383 145.129ZM796.454 207.548C796.601 214.342 796.209 215.333 791.599 219.721C786.008 225.052 779.24 227.552 771.492 227.128C768.157 226.986 766.882 226.656 764.822 225.618C758.642 222.363 756.681 214.578 760.653 209.058C762.517 206.416 767.127 204.246 772.276 203.632C776.543 203.066 793.708 201.792 795.326 201.934C796.258 201.981 796.307 202.358 796.454 207.548Z" fill="#38243D"/>
<path d="M922.247 145.365C906.357 148.149 893.705 158.01 886.642 173.201C882.719 181.694 880.806 192.828 881.836 201.887C883.308 215.38 888.016 225.618 896.549 233.875C905.524 242.508 915.283 246.377 929.26 246.896C950.593 247.698 966.434 239.442 975.016 223.118C976.733 219.768 976.929 217.833 975.654 216.701C974.869 215.993 973.3 215.899 964.129 215.899H953.536L951.623 218.4C950.544 219.768 948.877 221.561 947.896 222.41C939.265 229.676 923.228 228.638 915.136 220.24C911.899 216.795 910.477 214.059 909.496 209.294C908.466 204.34 908.859 203.396 912.095 202.972C913.37 202.83 928.721 202.689 946.18 202.689H978.008L978.793 201.462C980.46 199.056 978.793 184.194 975.997 176.079C973.104 167.681 966.875 158.434 961.088 153.905C955.449 149.47 947.357 146.167 939.951 145.129C935.047 144.516 926.612 144.61 922.247 145.365ZM939.363 165.841C943.139 167.257 947.161 170.842 949.024 174.381C950.839 177.919 951.967 183.439 951.035 184.525C950.495 185.138 947.847 185.232 930.633 185.232C913.321 185.232 910.771 185.138 910.134 184.477C909.104 183.534 909.153 182.166 910.33 178.58C912.439 172.022 917.196 167.115 923.375 165.228C927.004 164.096 935.685 164.473 939.363 165.841Z" fill="#38243D"/>
<path d="M460.319 146.969C458.161 147.866 458.112 148.715 458.308 184.996C458.504 223.825 458.357 222.363 462.33 230.289C465.91 237.366 470.274 241.235 478.072 244.254C485.379 247.085 493.619 247.745 501.563 246.141C508.527 244.773 513.873 242.131 520.052 237.036C521.622 235.762 523.093 234.818 523.338 234.96C523.534 235.101 523.779 236.941 523.829 239.017C523.878 241.14 524.025 243.122 524.172 243.452C524.711 244.867 526.918 245.15 537.168 245.15C547.467 245.15 547.467 245.15 548.644 243.971L549.87 242.839V195.942C549.87 150.461 549.821 148.951 548.938 147.913C548.006 146.781 547.957 146.781 536.972 146.781C526.918 146.781 525.839 146.875 524.956 147.677C523.927 148.526 523.927 148.998 523.73 177.165C523.534 208.397 523.583 207.737 520.543 213.918C518.728 217.645 514.412 221.702 510.293 223.589C507.154 225.005 506.664 225.099 501.318 225.099C496.022 225.099 495.482 225.005 492.736 223.684C490.529 222.646 489.401 221.702 488.224 220.004C484.84 215.144 484.938 216.229 484.644 180.986C484.497 163.482 484.202 148.762 484.006 148.338C483.761 147.913 483.222 147.394 482.78 147.205C481.603 146.686 461.545 146.498 460.319 146.969Z" fill="#38243D"/>
</svg>
