<svg width="397" height="479" viewBox="0 0 397 479" fill="none" xmlns="http://www.w3.org/2000/svg">
<path d="M199.365 0.605792C198.797 1.09835 198.512 1.78245 198.085 3.67057C197.346 6.92689 196.578 8.81501 195.184 10.8947C193.022 14.0963 189.751 16.3675 185.854 17.38C183.294 18.0367 182.299 18.5292 181.901 19.3228C181.019 21.2109 181.901 22.1687 185.627 23.2632C189.581 24.4399 190.718 25.0966 193.335 27.5594C195.469 29.5843 197.232 32.8954 198.085 36.5074C198.597 38.6966 198.825 39.2438 199.565 39.8185C200.645 40.6941 201.783 40.6941 202.864 39.8185C203.547 39.2712 203.774 38.7786 204.059 37.301C204.599 34.4551 205.68 31.4998 206.704 29.8853C208.894 26.5469 212.649 23.8105 216.148 23.017C218.423 22.497 219.02 22.196 219.561 21.2383C220.528 19.487 219.419 18.1188 216.46 17.38C212.507 16.3949 209.349 14.2878 207.159 11.1683C205.708 9.11601 205.452 8.514 204.4 4.68304C203.746 2.38446 203.319 1.37199 202.75 0.79734C201.755 -0.187766 200.418 -0.269858 199.365 0.605792Z" fill="#38243D"/>
<path d="M143.196 105.139C141.187 104.47 137.571 96.2995 139.178 68.9767H169.983L199.449 89.067L216.86 77.0128L264.407 65.6283V105.139L212.173 121.212L289.855 162.732V253.808L199.449 304.703L115.069 253.808V162.732L184.716 124.56V115.184L143.196 105.139Z" fill="#E6A74A" stroke="white"/>
<path d="M167.024 31.9922C166.512 32.4027 166.143 33.1689 165.687 34.8654C165.005 37.3008 163.611 39.7362 162.075 41.1044C161.193 41.8706 158.576 43.2388 157.951 43.2388C157.183 43.2662 155.163 44.306 154.879 44.8259C154.424 45.6469 154.964 46.7414 156.045 47.1793C156.557 47.3982 157.723 47.8634 158.662 48.1917C162.559 49.6147 164.607 52.1321 166.086 57.2766C166.455 58.508 166.74 58.9458 167.366 59.2468C168.93 60.0404 170.096 58.8637 170.665 55.9358C170.921 54.5675 172.031 52.4332 173.197 51.0376C174.477 49.5326 176.013 48.5475 178.487 47.6444C180.791 46.8509 181.531 46.0573 181.218 44.8259C181.019 44.1145 180.393 43.7587 178.26 43.2388C176.439 42.801 173.68 40.8582 172.457 39.1342C171.831 38.3133 171.092 36.7535 170.779 35.7137C169.897 32.9226 169.641 32.3206 168.959 31.8827C168.191 31.3355 167.878 31.3628 167.024 31.9922Z" fill="#38243D"/>
<path d="M232.873 31.746C232.105 32.047 231.82 32.5669 231.365 34.4824C230.597 37.7114 228.379 40.8309 225.819 42.2812C225.193 42.6369 223.913 43.1295 222.974 43.3757C221.268 43.8409 219.988 44.7713 219.988 45.5922C219.988 46.3584 221.325 47.2888 223.117 47.7813C227.013 48.8212 229.915 51.667 231.109 55.6622C231.991 58.5901 232.19 59.0006 232.93 59.3837C233.442 59.6573 233.726 59.6573 234.38 59.3563C235.035 59.0553 235.319 58.6175 235.717 57.3314C237.538 51.5849 239.7 49.1769 244.165 47.8908C246.27 47.2888 247.01 46.6868 247.01 45.6469C247.01 44.7439 246.299 44.1693 244.308 43.5125C239.899 42.0623 237.509 39.6269 236.229 35.3033C235.433 32.649 235.148 32.1565 234.295 31.7734C233.925 31.6092 233.584 31.4724 233.556 31.4997C233.527 31.4997 233.214 31.6092 232.873 31.746Z" fill="#38243D"/>
<path d="M135.906 61.0803C135.565 61.2171 135.025 61.8191 134.683 62.3938C134.114 63.3789 134.086 63.7893 134.086 70.001C134.086 73.6404 133.972 76.6505 133.858 76.7325C133.716 76.8146 132.379 77.1156 130.843 77.4166C127.345 78.1007 125.609 78.9217 124.927 80.1804C124.443 81.0834 124.415 81.9043 124.472 92.9047L124.557 104.671L125.353 105.957C126.889 108.502 128.056 108.967 136.646 110.418C153.542 113.291 165.005 115.808 175.615 119.037C178.032 119.776 180.592 120.515 181.246 120.679L182.498 120.98L180.82 121.965C175.956 124.811 150.384 137.754 128.397 148.536C123.618 150.862 118.584 153.407 117.162 154.145C112.781 156.526 110.506 159.208 109.652 163.039C109.425 164.079 109.339 176.748 109.339 208.326C109.339 256.596 109.254 253.942 111.103 257.281C112.098 259.087 114.175 261.029 116.479 262.316C117.332 262.808 122.68 265.763 128.397 268.938C134.114 272.085 142.164 276.545 146.317 278.843C150.47 281.142 155.448 283.906 157.41 285C163.753 288.476 172.941 293.647 183.778 299.75C195.241 306.235 198.569 307.466 202.978 306.864C205.339 306.536 209.463 304.73 214.583 301.802C216.233 300.844 219.049 299.257 220.841 298.272C222.633 297.259 229.374 293.511 235.774 289.953C242.203 286.369 248.403 282.921 249.57 282.264C250.736 281.607 258.16 277.475 266.067 273.097C273.975 268.691 281.598 264.45 283.02 263.656C284.442 262.863 286.12 261.905 286.746 261.522C288.282 260.592 290.359 258.293 291.24 256.596C292.89 253.34 292.833 255.146 292.748 207.341L292.663 163.504L291.866 161.616C290.814 159.098 289.221 157.101 287.059 155.623C286.064 154.939 282.195 152.887 278.441 151.053C271.216 147.496 252.841 138.356 242.174 132.993C227.98 125.878 219.419 121.309 219.419 120.898C219.419 120.789 219.703 120.679 220.016 120.679C220.357 120.679 223.003 119.94 225.932 119.065C237.651 115.453 244.563 113.948 265.498 110.418C274.231 108.94 275.369 108.475 276.791 105.684L277.587 104.124L277.673 92.7131C277.758 81.7402 277.729 81.2476 277.189 80.2078C276.336 78.6206 274.601 77.9366 269.168 77.0609L268.115 76.8693L268.001 70.1104C267.888 62.7495 267.745 62.1201 266.181 61.1076C265.527 60.6972 265.186 60.6972 262.853 60.9982C256.311 61.8739 245.957 64.063 238.476 66.1153C222.206 70.6304 210.231 75.7748 203.746 81.0561C201.015 83.2725 200.759 83.382 199.678 82.6158C199.195 82.2874 198.057 81.3844 197.175 80.6182C192.397 76.6231 184.432 72.6827 173.965 69.2074C163.668 65.8143 150.953 62.7495 140.571 61.1624C137.385 60.6972 136.731 60.6698 135.906 61.0803ZM147.938 71.7249C161.933 74.2698 173.68 77.7724 182.896 82.0959C189.694 85.2975 193.933 88.6906 197.403 93.6982C199.109 96.161 200.02 96.8177 201.413 96.462C202.494 96.2157 202.665 96.0516 204.912 93.1783C210.601 85.8995 219.191 80.9192 233.641 76.5684C240.951 74.3792 255.344 71.1503 257.904 71.1503C258.359 71.1503 258.387 71.8891 258.33 83.9293L258.245 96.7083L252.841 97.4471C236.03 99.7183 222.661 103.002 214.498 106.888C211.056 108.502 209.236 109.706 206.818 111.895L205.197 113.373H196.407L194.502 111.676C192.169 109.569 190.292 108.393 186.566 106.696C177.463 102.592 163.867 99.39 145.179 96.9272L143.615 96.7357L143.529 83.9293L143.472 71.1503H144.155C144.553 71.1503 146.26 71.3966 147.938 71.7249ZM195.639 127.247C196.18 127.766 196.237 128.232 196.407 133.622C196.606 139.752 196.407 142.051 195.639 142.871C194.786 143.774 192.311 144.431 185.968 145.444C180.82 146.265 166.228 148.673 154.424 150.643C149.048 151.546 141.026 152.969 140.429 153.133C140.059 153.242 139.775 153.242 139.775 153.16C139.775 153.078 144.354 150.698 149.958 147.879C155.533 145.061 164.208 140.655 169.215 138.11C193.079 125.96 192.311 126.316 194.075 126.562C194.615 126.617 195.326 126.946 195.639 127.247ZM213.588 128.478C215.636 129.436 218.309 130.777 219.561 131.433C220.812 132.09 226.501 135.018 232.219 137.919C237.936 140.819 244.194 144.021 246.156 145.033C248.119 146.046 252.215 148.125 255.258 149.685C258.302 151.245 261.061 152.695 261.374 152.914C261.914 153.27 261.858 153.297 260.947 153.133C259.298 152.832 248.915 151.081 243.739 150.232C241.093 149.795 234.864 148.755 229.943 147.934C205.879 143.857 206.903 144.103 205.851 142.625C205.396 141.968 205.339 141.23 205.339 135.428C205.367 128.451 205.538 127.548 206.875 126.836C208.041 126.207 209.577 126.562 213.588 128.478ZM190.69 153.927C190.69 154.282 189.638 156.034 186.992 160.083C185.485 162.409 183.38 165.666 182.299 167.335C181.246 168.977 179.369 171.877 178.174 173.765C176.951 175.654 174.192 179.95 172.059 183.343C169.926 186.736 167.309 190.841 166.256 192.51C160.823 201.047 155.732 209.092 151.778 215.359C146.715 223.431 145.947 224.526 145.321 224.772C144.297 225.155 144.44 225.429 141.14 216.18C137.926 207.04 128.795 182.002 126.491 175.955C123.192 167.308 122.537 165.337 122.879 165.009C123.021 164.872 125.382 164.38 128.113 163.942C132.749 163.176 146.772 160.85 163.668 158.031C170.864 156.827 187.191 154.2 188.841 153.981C190.292 153.79 190.69 153.79 190.69 153.927ZM217.854 154.884C220.67 155.349 229.317 156.772 237.054 158.059C261.914 162.163 265.811 162.792 271.472 163.641C278.753 164.763 279.152 164.845 279.152 165.693C279.152 166.076 278.753 167.308 278.298 168.457C277.815 169.606 276.876 172.042 276.165 173.875C272.865 182.714 265.84 201.732 264.503 205.508C262 212.513 257.648 224.28 257.42 224.635C256.766 225.648 256.709 225.566 247.209 210.707C230.455 184.492 225.193 176.31 218.423 165.967C212.706 157.265 210.885 154.282 211.085 153.981C211.17 153.872 211.568 153.817 211.966 153.899C212.393 153.981 215.038 154.419 217.854 154.884ZM202.437 157.949C203.405 159.098 205.965 162.984 213.161 174.176C215.095 177.186 217.456 180.88 218.423 182.385C220.756 185.997 231.166 202.251 234.011 206.739C235.262 208.682 237.708 212.513 239.472 215.222C246.327 225.812 248.83 229.78 249.513 231.175C250.366 232.981 250.224 233.83 248.972 234.076C247.778 234.295 155.305 234.295 153.599 234.076C152.831 233.966 152.176 233.72 152.091 233.501C151.693 232.489 152.944 230.3 162.018 216.043C162.871 214.675 165.602 210.379 168.077 206.466C174.278 196.669 181.417 185.45 183.721 181.838C185.542 178.965 187.419 176.037 193.591 166.377C197.46 160.275 198.91 158.113 199.593 157.402C200.475 156.471 201.328 156.636 202.437 157.949ZM119.693 183.124C123.249 193.085 133.602 221.68 136.276 228.904C137.556 232.407 137.101 235.17 134.882 237.141C133.688 238.235 119.835 245.979 118.954 246.061L118.299 246.143L118.271 213.088C118.271 194.918 118.328 180.059 118.413 180.059C118.527 180.059 119.096 181.455 119.693 183.124ZM283.589 246.499C283.361 246.718 282.309 246.253 279.749 244.748C278.327 243.927 276.734 243.024 276.222 242.75C272.979 240.972 268.457 238.345 267.376 237.606C265.897 236.593 265.043 235.143 264.787 233.255C264.588 231.723 264.076 233.173 276.307 199.761C278.384 194.124 280.858 187.338 281.797 184.711L283.561 179.922L283.646 213.142C283.674 231.422 283.646 246.417 283.589 246.499ZM246.156 243.38C246.156 243.817 245.445 244.748 240.553 250.686C238.619 253.012 235.518 256.815 233.612 259.141C231.707 261.467 228.635 265.216 226.786 267.487C220.016 275.779 213.275 284.07 208.155 290.418C205.253 293.976 202.608 297.15 202.295 297.451C201.214 298.436 199.394 298.08 198.228 296.657C197.63 295.946 188.443 284.563 181.559 275.97C175.842 268.856 167.394 258.43 158.349 247.265C156.756 245.295 155.419 243.516 155.419 243.325C155.419 243.079 164.692 242.997 200.788 242.997C239.472 242.997 246.156 243.051 246.156 243.38ZM143.842 244.748C145.151 245.268 146.317 246.472 149.872 250.905C151.608 253.039 155.192 257.472 157.837 260.756C162.416 266.365 164.976 269.54 168.93 274.438C169.869 275.615 171.974 278.269 173.623 280.348C175.273 282.428 177.15 284.781 177.833 285.575C178.942 286.916 178.999 287.6 177.918 286.67C177.662 286.451 176.382 285.684 175.046 284.946C173.709 284.179 168.532 281.279 163.526 278.433C150.128 270.853 141.168 265.818 132.408 260.893C128.141 258.512 124.329 256.268 123.931 255.912C123.192 255.256 123.22 254.517 124.073 253.614C124.301 253.34 127.202 251.644 130.502 249.81C133.801 247.977 137.329 246.007 138.353 245.405C140.4 244.255 142.136 244.036 143.842 244.748ZM263.081 245.24C263.706 245.623 266.153 247.019 268.485 248.333C278.213 253.778 278.128 253.751 278.412 254.681C278.753 255.858 278.526 256.077 275.511 257.718C273.377 258.868 269.196 261.221 254.974 269.211C253.495 270.032 250.793 271.537 249.001 272.55C247.209 273.562 244.649 274.985 243.312 275.751C241.975 276.49 237.765 278.871 233.925 281.005C230.085 283.167 226.018 285.466 224.852 286.122C223.685 286.779 222.69 287.272 222.604 287.217C222.491 287.08 228.521 279.555 240.467 264.888C245.047 259.251 250.309 252.766 252.158 250.522C256.965 244.584 257.335 244.31 260.236 244.447C261.488 244.502 262.256 244.72 263.081 245.24Z" fill="#38243D"/>
<path d="M184.091 192.783C181.446 193.741 178.971 196.094 177.463 199.022C175.785 202.361 176.24 203.592 179.142 203.592C180.109 203.592 181.019 203.483 181.19 203.373C181.36 203.264 181.929 202.388 182.47 201.43C184.091 198.475 186.423 197.326 188.784 198.338C191.06 199.323 192.397 201.622 191.828 203.647C191.344 205.344 189.268 207.697 182.299 214.51L175.615 221.05V223.212C175.615 226.715 174.647 226.469 186.765 226.359C194.957 226.277 197.175 226.195 197.488 225.894C197.943 225.456 197.943 220.886 197.488 220.421C197.346 220.284 194.644 220.147 191.174 220.093C187.874 220.065 185.086 220.038 185.001 220.038C184.916 220.011 186.878 218.013 189.382 215.578C194.644 210.406 196.436 208.08 197.289 205.426C198.825 200.5 196.606 195.52 191.885 193.276C190.519 192.647 189.865 192.51 187.703 192.455C186.025 192.4 184.774 192.51 184.091 192.783Z" fill="#38243D"/>
<path d="M210.117 192.756C206.164 193.987 203.518 197.025 202.011 202.087C201.47 203.975 201.385 204.933 201.357 208.928C201.357 215.058 201.954 217.521 204.4 221.269C206.818 225.018 209.748 226.633 213.929 226.605C218.708 226.578 222.718 222.802 224.595 216.535C225.164 214.647 225.25 213.799 225.25 209.065C225.221 203.948 225.193 203.647 224.453 201.54C223.998 200.336 223.315 198.804 222.889 198.119C221.808 196.313 219.646 194.206 217.94 193.331C216.66 192.647 216.062 192.51 213.872 192.455C212.251 192.4 210.857 192.51 210.117 192.756ZM215.067 198.858C218.622 200.473 220.272 207.615 218.679 214.483C217.484 219.655 214.441 221.789 211.113 219.764C209.463 218.752 208.183 216.399 207.728 213.443C207.273 210.597 207.529 204.659 208.183 202.908C208.837 201.129 210.146 199.323 211.113 198.831C212.137 198.284 213.844 198.284 215.067 198.858Z" fill="#38243D"/>
<path d="M0.136 355.936V353.248L13.448 345.44H18.44L33.16 391.648L35.208 390.752V364C35.208 361.525 34.7813 359.605 33.928 358.24C33.0747 356.789 32.2213 355.936 31.368 355.68L29.96 355.424V352.608L42.248 345.312C42.9307 345.312 44.3813 346.293 46.6 348.256C48.8187 350.133 49.928 351.925 49.928 353.632V390.24C49.928 391.691 45.1493 394.123 35.592 397.536V421.6C35.592 424.416 35.8907 426.379 36.488 427.488C37.1707 428.512 38.5787 429.024 40.712 429.024V432.608L14.6 444L12.552 439.904C16.2213 439.051 18.4827 437.003 19.336 433.76C19.9333 431.456 20.232 428.683 20.232 425.44V398.432L7.432 360.032C7.00533 358.752 6.36533 357.813 5.512 357.216C4.65867 356.533 3.89067 356.149 3.208 356.064C2.52533 355.979 1.50133 355.936 0.136 355.936ZM62.15 425.312V382.816C62.15 382.219 67.014 380.128 76.742 376.544C86.47 372.875 92.0593 371.04 93.51 371.04C94.9607 371.04 97.1367 372.789 100.038 376.288C103.025 379.787 104.518 382.944 104.518 385.76V432.096C104.518 432.779 99.8247 434.955 90.438 438.624C81.1367 442.208 75.4193 444 73.286 444C71.238 444 68.8487 442.165 66.118 438.496C63.4727 434.827 62.15 430.432 62.15 425.312ZM84.038 432.224C85.6593 432.224 87.3233 431.541 89.03 430.176V392.416C89.03 386.101 86.854 382.944 82.502 382.944C80.7953 382.944 79.1313 383.584 77.51 384.864V422.752C77.51 429.067 79.686 432.224 84.038 432.224ZM132.635 424.032C132.635 426.251 133.275 428.085 134.555 429.536C135.92 430.901 137.414 431.584 139.035 431.584C140.656 431.584 142.363 430.944 144.155 429.664V389.856C144.155 384.651 142.406 381.707 138.907 381.024V378.208L151.835 370.912C153.712 371.68 155.462 372.96 157.083 374.752C158.704 376.459 159.515 378.08 159.515 379.616V423.008C159.515 425.824 160.112 428.256 161.307 430.304C162.502 432.352 163.995 433.376 165.787 433.376V436.192C165.19 436.277 160.539 438.88 151.835 444C149.872 443.147 148.08 441.909 146.459 440.288C144.923 438.581 144.155 436.96 144.155 435.424L128.155 444C127.899 443.829 127.515 443.616 127.003 443.36C126.491 443.019 125.595 442.379 124.315 441.44C123.12 440.416 122.054 439.349 121.115 438.24C118.555 435.424 117.275 432.224 117.275 428.64V389.856C117.275 385.163 115.184 382.389 111.003 381.536V378.72L124.955 370.912C126.832 371.68 128.582 372.96 130.203 374.752C131.824 376.459 132.635 378.08 132.635 379.616V424.032ZM166.003 378.72L180.083 371.04C180.68 371.211 181.363 371.467 182.131 371.808C182.984 372.064 184.094 372.875 185.459 374.24C186.91 375.605 187.635 377.141 187.635 378.848C188.062 378.677 190.067 377.355 193.651 374.88C197.32 372.32 199.667 371.04 200.691 371.04C203.422 371.04 205.982 372.832 208.371 376.416C210.76 380 211.955 383.285 211.955 386.272V392.544L198.771 399.968L196.595 398.176C196.595 391.008 195.912 386.912 194.547 385.888C193.011 384.779 190.707 384.224 187.635 384.224V425.056C187.635 430.261 189.384 433.205 192.883 433.888V436.704L179.955 444C178.078 443.232 176.328 441.995 174.707 440.288C173.086 438.496 172.275 436.832 172.275 435.296V392.8C172.275 389.045 171.592 386.229 170.227 384.352C168.947 382.475 167.539 381.536 166.003 381.536V378.72ZM230.116 430.944V363.104L234.084 359.264H226.02C220.815 359.264 217.871 360.672 217.188 363.488H214.372L207.076 352.992C208.1 351.371 209.423 349.92 211.044 348.64C212.665 347.36 214.244 346.72 215.78 346.72H249.572C254.777 346.72 257.721 345.312 258.404 342.496H261.22L268.516 352.992C267.492 354.613 266.169 356.064 264.548 357.344C262.927 358.624 261.348 359.264 259.812 359.264H245.476V424.288C245.476 427.445 245.817 429.707 246.5 431.072C247.183 432.437 248.591 433.12 250.724 433.12V437.088L224.484 448.096L222.436 444C224.313 444 226.105 442.891 227.812 440.672C229.348 438.539 230.116 435.296 230.116 430.944ZM307.33 387.936V424.16C307.33 427.317 307.842 429.536 308.866 430.816C309.89 432.011 311.469 432.864 313.602 433.376V436.192L299.65 444C297.773 443.232 296.023 441.995 294.402 440.288C292.781 438.496 291.97 436.875 291.97 435.424L275.97 444C275.714 443.829 275.33 443.616 274.818 443.36C274.306 443.019 273.41 442.379 272.13 441.44C270.935 440.416 269.869 439.349 268.93 438.24C266.37 435.424 265.09 432.224 265.09 428.64V407.648C265.09 406.283 267.309 404.533 271.746 402.4C276.183 400.267 280.621 398.517 285.058 397.152L291.842 394.976C291.842 390.112 290.562 386.741 288.002 384.864C285.442 382.901 280.493 381.92 273.154 381.92V378.08C286.381 373.387 293.805 371.04 295.426 371.04C298.242 371.04 300.93 372.875 303.49 376.544C306.05 380.213 307.33 384.011 307.33 387.936ZM280.45 424.032C280.45 426.251 281.09 428.085 282.37 429.536C283.735 430.901 285.229 431.584 286.85 431.584C288.471 431.584 290.178 430.944 291.97 429.664V400.736C289.837 401.504 288.215 402.144 287.106 402.656C286.082 403.168 284.973 403.979 283.778 405.088C281.559 407.136 280.45 410.677 280.45 415.712V424.032ZM335.51 354.272V425.056C335.51 430.261 337.259 433.205 340.758 433.888V436.704L327.83 444C325.953 443.232 324.203 441.995 322.582 440.288C320.961 438.496 320.15 436.832 320.15 435.296V364.512C320.15 359.307 318.401 356.363 314.902 355.68V352.864L327.83 345.568C329.707 346.336 331.457 347.616 333.078 349.408C334.699 351.115 335.51 352.736 335.51 354.272ZM379.635 371.04C380.062 371.04 381.128 371.723 382.835 373.088C384.542 374.368 386.248 376.203 387.955 378.592C389.662 380.896 390.515 383.157 390.515 385.376V406.88C390.515 408.416 388.254 410.293 383.731 412.512C379.208 414.731 374.814 416.565 370.547 418.016C366.366 419.381 364.104 420.064 363.763 420.064C363.763 426.635 366.622 430.688 372.339 432.224C375.155 432.907 378.526 433.248 382.451 433.248V436.96C368.456 441.653 360.99 444 360.051 444C357.491 444 354.888 442.208 352.243 438.624C349.598 434.955 348.275 430.688 348.275 425.824V382.816C348.275 382.219 353.139 380.128 362.867 376.544C372.595 372.875 378.184 371.04 379.635 371.04ZM375.155 391.392C375.155 389.003 374.6 386.997 373.491 385.376C372.382 383.669 370.974 382.816 369.267 382.816C367.56 382.816 365.683 383.456 363.635 384.736V414.304C371.315 412.171 375.155 407.563 375.155 400.48V391.392Z" fill="#38243D"/>
</svg>
