<svg width="644" height="615" viewBox="0 0 644 615" fill="none" xmlns="http://www.w3.org/2000/svg">
<path d="M318.772 0.904667C317.922 1.64018 317.497 2.66171 316.86 5.48116C315.756 10.3437 314.609 13.1631 312.528 16.2686C309.3 21.0494 304.415 24.4409 298.596 25.9528C294.774 26.9335 293.287 27.669 292.692 28.854C291.376 31.6734 292.692 33.1036 298.256 34.738C304.16 36.4951 305.859 37.4758 309.767 41.1533C312.953 44.177 315.586 49.1213 316.86 54.515C317.625 57.7839 317.965 58.6012 319.069 59.4593C320.683 60.7668 322.382 60.7668 323.996 59.4593C325.015 58.642 325.355 57.9065 325.78 55.7C326.587 51.4504 328.201 47.0374 329.73 44.6265C333.001 39.6414 338.607 35.5553 343.832 34.3703C347.23 33.5939 348.122 33.1444 348.929 31.7143C350.373 29.0991 348.716 27.0561 344.299 25.9528C338.395 24.4818 333.68 21.3354 330.41 16.6772C328.243 13.6126 327.861 12.7137 326.29 6.99304C325.313 3.56067 324.676 2.04879 323.826 1.1907C322.34 -0.280317 320.343 -0.402902 318.772 0.904667Z" fill="#38243D"/>
<path d="M234.896 157C231.896 156 226.496 143.8 228.896 103H274.896L318.896 133L344.896 115L415.896 98V157L337.896 181L453.896 243V379L318.896 455L192.896 379V243L296.896 186V172L234.896 157Z" fill="#E6A74A" stroke="white"/>
<path d="M270.478 47.7728C269.714 48.3857 269.161 49.5298 268.482 52.0632C267.462 55.6999 265.381 59.3366 263.088 61.3797C261.771 62.5238 257.863 64.5669 256.929 64.5669C255.782 64.6077 252.766 66.1605 252.341 66.9368C251.662 68.1627 252.469 69.7971 254.083 70.4509C254.847 70.7778 256.589 71.4725 257.991 71.9628C263.81 74.0876 266.868 77.8469 269.076 85.5288C269.629 87.3676 270.053 88.0214 270.988 88.4709C273.324 89.6558 275.065 87.8988 275.915 83.5266C276.297 81.4835 277.954 78.2963 279.695 76.2124C281.606 73.965 283.9 72.494 287.595 71.1456C291.036 69.9606 292.14 68.7756 291.673 66.9368C291.376 65.8744 290.441 65.3432 287.256 64.5669C284.537 63.9131 280.417 61.0119 278.591 58.4376C277.656 57.2118 276.552 54.8827 276.085 53.3299C274.768 49.1621 274.386 48.2631 273.366 47.6093C272.22 46.7921 271.752 46.8329 270.478 47.7728Z" fill="#38243D"/>
<path d="M368.807 47.405C367.66 47.8545 367.235 48.6308 366.556 51.4911C365.409 56.3128 362.096 60.971 358.273 63.1367C357.339 63.6679 355.427 64.4034 354.026 64.7711C351.477 65.4658 349.566 66.8551 349.566 68.0809C349.566 69.2251 351.562 70.6143 354.238 71.3499C360.057 72.9026 364.39 77.1522 366.173 83.118C367.49 87.4902 367.788 88.1031 368.892 88.6751C369.656 89.0838 370.081 89.0838 371.058 88.6343C372.035 88.1848 372.46 87.531 373.054 85.6105C375.773 77.0296 379.001 73.4338 385.669 71.5133C388.812 70.6143 389.917 69.7154 389.917 68.1627C389.917 66.8142 388.855 65.9561 385.882 64.9755C379.298 62.8098 375.73 59.1731 373.819 52.717C372.63 48.7534 372.205 48.0179 370.931 47.4458C370.378 47.2007 369.869 46.9964 369.826 47.0372C369.784 47.0372 369.317 47.2007 368.807 47.405Z" fill="#38243D"/>
<path d="M224.011 91.2086C223.501 91.4129 222.694 92.3119 222.185 93.1699C221.335 94.641 221.293 95.2539 221.293 104.529C221.293 109.964 221.123 114.459 220.953 114.581C220.74 114.704 218.744 115.153 216.45 115.603C211.226 116.624 208.635 117.85 207.616 119.73C206.894 121.078 206.851 122.304 206.936 138.731L207.064 156.301L208.253 158.222C210.546 162.022 212.288 162.716 225.115 164.882C250.345 169.172 267.462 172.932 283.305 177.753C286.916 178.857 290.738 179.96 291.715 180.205L293.584 180.655L291.078 182.126C283.815 186.375 245.63 205.703 212.798 221.802C205.662 225.275 198.144 229.075 196.02 230.179C189.479 233.734 186.081 237.738 184.807 243.459C184.467 245.011 184.34 263.93 184.34 311.085C184.34 383.164 184.212 379.201 186.973 384.186C188.46 386.883 191.56 389.784 195.001 391.704C196.275 392.44 204.26 396.853 212.798 401.593C221.335 406.292 233.355 412.952 239.557 416.385C245.758 419.817 253.191 423.944 256.122 425.579C265.594 430.768 279.313 438.491 295.496 447.603C312.613 457.287 317.582 459.126 324.166 458.227C327.691 457.737 333.85 455.04 341.496 450.668C343.959 449.237 348.164 446.867 350.84 445.396C353.516 443.885 363.582 438.287 373.139 432.975C382.738 427.622 391.998 422.473 393.739 421.492C395.481 420.512 406.567 414.342 418.375 407.804C430.183 401.225 441.566 394.892 443.689 393.707C445.813 392.522 448.319 391.091 449.254 390.519C451.547 389.13 454.648 385.698 455.965 383.164C458.428 378.302 458.343 380.999 458.216 309.614L458.088 244.153L456.899 241.334C455.327 237.575 452.949 234.592 449.721 232.385C448.234 231.364 442.458 228.299 436.851 225.561C426.063 220.249 398.624 206.602 382.696 198.593C361.501 187.969 348.716 181.145 348.716 180.532C348.716 180.368 349.141 180.205 349.608 180.205C350.118 180.205 354.068 179.102 358.443 177.794C375.943 172.4 386.264 170.153 417.525 164.882C430.565 162.675 432.264 161.981 434.388 157.813L435.577 155.484L435.704 138.445C435.832 122.059 435.789 121.324 434.982 119.771C433.708 117.401 431.117 116.379 423.004 115.072L421.433 114.786L421.263 104.693C421.093 93.7011 420.881 92.7613 418.545 91.2494C417.568 90.6365 417.058 90.6365 413.575 91.086C403.806 92.3936 388.345 95.6625 377.174 98.7271C352.879 105.469 334.997 113.151 325.313 121.038C321.235 124.347 320.853 124.511 319.239 123.367C318.517 122.876 316.818 121.528 315.501 120.384C308.365 114.418 296.473 108.534 280.842 103.344C265.466 98.2776 246.48 93.7011 230.977 91.3312C226.22 90.6365 225.243 90.5957 224.011 91.2086ZM241.978 107.104C262.875 110.904 280.417 116.134 294.179 122.59C304.33 127.371 310.659 132.438 315.841 139.916C318.389 143.593 319.749 144.574 321.83 144.043C323.444 143.675 323.699 143.43 327.054 139.139C335.549 128.27 348.376 120.833 369.954 114.336C380.87 111.067 402.362 106.246 406.184 106.246C406.864 106.246 406.906 107.349 406.822 125.328L406.694 144.41L398.624 145.514C373.521 148.905 353.558 153.808 341.368 159.611C336.229 162.022 333.51 163.82 329.9 167.088L327.479 169.295H314.354L311.509 166.762C308.026 163.615 305.222 161.858 299.658 159.325C286.066 153.196 265.763 148.415 237.858 144.737L235.522 144.451L235.394 125.328L235.309 106.246H236.329C236.923 106.246 239.472 106.613 241.978 107.104ZM313.208 190.012C314.015 190.788 314.1 191.483 314.354 199.533C314.652 208.686 314.354 212.118 313.208 213.344C311.933 214.692 308.238 215.673 298.766 217.185C291.078 218.411 269.289 222.006 251.662 224.948C243.634 226.297 231.656 228.422 230.764 228.667C230.212 228.83 229.787 228.83 229.787 228.708C229.787 228.585 236.626 225.03 244.993 220.821C253.318 216.613 266.273 210.034 273.749 206.234C309.385 188.091 308.238 188.623 310.871 188.99C311.678 189.072 312.74 189.562 313.208 190.012ZM340.009 191.851C343.067 193.281 347.06 195.283 348.929 196.264C350.798 197.244 359.292 201.616 367.83 205.948C376.367 210.279 385.712 215.06 388.642 216.572C391.573 218.084 397.689 221.189 402.234 223.518C406.779 225.847 410.899 228.013 411.366 228.34C412.173 228.871 412.088 228.912 410.729 228.667C408.266 228.217 392.762 225.602 385.032 224.336C381.082 223.682 371.78 222.129 364.432 220.903C328.498 214.815 330.027 215.183 328.456 212.976C327.776 211.995 327.691 210.892 327.691 202.229C327.734 191.81 327.989 190.461 329.985 189.399C331.726 188.459 334.02 188.99 340.009 191.851ZM305.817 229.852C305.817 230.383 304.245 232.998 300.295 239.046C298.044 242.519 294.901 247.381 293.287 249.874C291.715 252.326 288.912 256.657 287.128 259.476C285.302 262.296 281.182 268.711 277.996 273.778C274.811 278.845 270.903 284.974 269.331 287.467C261.219 300.215 253.616 312.229 247.712 321.586C240.151 333.64 239.004 335.275 238.07 335.642C236.541 336.214 236.753 336.623 231.826 322.812C227.027 309.164 213.392 271.776 209.952 262.745C205.025 249.833 204.048 246.891 204.558 246.401C204.77 246.196 208.295 245.461 212.373 244.807C219.296 243.663 240.236 240.19 265.466 235.981C276.212 234.183 300.593 230.26 303.056 229.934C305.222 229.648 305.817 229.648 305.817 229.852ZM346.38 231.282C350.585 231.977 363.497 234.101 375.051 236.022C412.173 242.151 417.992 243.091 426.445 244.358C437.318 246.033 437.913 246.156 437.913 247.422C437.913 247.994 437.318 249.833 436.639 251.549C435.917 253.265 434.515 256.902 433.453 259.64C428.526 272.838 418.035 301.237 416.039 306.876C412.301 317.336 405.802 334.907 405.462 335.438C404.485 336.95 404.4 336.827 390.214 314.64C365.196 275.494 357.339 263.277 347.23 247.831C338.692 234.837 335.974 230.383 336.271 229.934C336.399 229.77 336.993 229.688 337.588 229.811C338.225 229.934 342.175 230.587 346.38 231.282ZM323.359 235.858C324.803 237.575 328.626 243.377 339.372 260.089C342.26 264.584 345.786 270.1 347.23 272.348C350.713 277.742 366.258 302.013 370.506 308.715C372.375 311.616 376.027 317.336 378.661 321.382C388.897 337.195 392.635 343.12 393.654 345.204C394.929 347.901 394.716 349.168 392.847 349.535C391.063 349.862 252.979 349.862 250.43 349.535C249.283 349.372 248.306 349.004 248.179 348.677C247.584 347.165 249.453 343.896 263.003 322.608C264.277 320.564 268.354 314.149 272.05 308.306C281.309 293.678 291.97 276.924 295.411 271.531C298.129 267.24 300.932 262.868 310.149 248.444C315.926 239.332 318.092 236.104 319.112 235.041C320.428 233.652 321.702 233.897 323.359 235.858ZM199.8 273.451C205.11 288.325 220.57 331.025 224.563 341.812C226.474 347.043 225.795 351.17 222.482 354.112C220.698 355.746 200.013 367.31 198.696 367.433L197.719 367.555L197.677 318.194C197.677 291.062 197.762 268.875 197.889 268.875C198.059 268.875 198.908 270.959 199.8 273.451ZM444.539 368.086C444.199 368.413 442.628 367.719 438.805 365.471C436.681 364.245 434.303 362.897 433.538 362.488C428.696 359.832 421.942 355.91 420.328 354.806C418.12 353.295 416.846 351.129 416.463 348.309C416.166 346.021 415.401 348.187 433.665 298.295C436.766 289.877 440.461 279.744 441.863 275.821L444.496 268.67L444.624 318.276C444.666 345.572 444.624 367.964 444.539 368.086ZM388.642 363.428C388.642 364.082 387.581 365.471 380.275 374.338C377.387 377.811 372.757 383.491 369.911 386.964C367.065 390.438 362.478 396.036 359.717 399.427C349.608 411.808 339.542 424.189 331.896 433.669C327.564 438.981 323.614 443.721 323.147 444.171C321.533 445.642 318.814 445.11 317.073 442.986C316.181 441.923 302.461 424.925 292.183 412.094C283.645 401.47 271.03 385.902 257.523 369.231C255.145 366.288 253.148 363.632 253.148 363.346C253.148 362.979 266.995 362.856 320.895 362.856C378.661 362.856 388.642 362.938 388.642 363.428ZM235.861 365.471C237.815 366.248 239.557 368.046 244.866 374.665C247.457 377.852 252.809 384.472 256.759 389.375C263.597 397.752 267.42 402.492 273.324 409.806C274.726 411.563 277.869 415.527 280.332 418.632C282.796 421.738 285.599 425.252 286.618 426.437C288.275 428.439 288.36 429.46 286.746 428.071C286.364 427.744 284.452 426.6 282.456 425.497C280.46 424.353 272.729 420.021 265.254 415.772C245.248 404.453 231.869 396.935 218.787 389.58C212.415 386.025 206.724 382.674 206.129 382.143C205.025 381.162 205.067 380.059 206.341 378.71C206.681 378.302 211.014 375.768 215.941 373.031C220.868 370.293 226.135 367.351 227.664 366.452C230.722 364.736 233.313 364.409 235.861 365.471ZM413.915 366.207C414.849 366.779 418.502 368.863 421.985 370.824C436.511 378.956 436.384 378.915 436.809 380.304C437.318 382.061 436.978 382.388 432.476 384.84C429.291 386.556 423.047 390.07 401.81 402.001C399.601 403.227 395.566 405.475 392.89 406.987C390.214 408.498 386.391 410.623 384.395 411.767C382.399 412.871 376.112 416.426 370.378 419.613C364.644 422.841 358.57 426.273 356.829 427.254C355.087 428.235 353.601 428.97 353.473 428.888C353.304 428.684 362.308 417.447 380.147 395.545C386.986 387.128 394.844 377.444 397.605 374.093C404.783 365.226 405.335 364.817 409.667 365.022C411.536 365.104 412.683 365.43 413.915 366.207Z" fill="#38243D"/>
<path d="M295.963 287.875C292.013 289.305 288.317 292.819 286.066 297.192C283.56 302.177 284.24 304.016 288.572 304.016C290.016 304.016 291.376 303.852 291.63 303.689C291.885 303.525 292.735 302.218 293.542 300.787C295.963 296.374 299.446 294.658 302.971 296.17C306.369 297.641 308.365 301.073 307.516 304.097C306.794 306.631 303.693 310.145 293.287 320.319L283.305 330.085V333.313C283.305 338.544 281.861 338.176 299.955 338.012C312.188 337.89 315.501 337.767 315.968 337.318C316.648 336.664 316.648 329.84 315.968 329.145C315.756 328.941 311.721 328.737 306.539 328.655C301.612 328.614 297.449 328.573 297.322 328.573C297.195 328.532 300.125 325.55 303.863 321.913C311.721 314.19 314.397 310.717 315.671 306.753C317.965 299.398 314.652 291.961 307.601 288.611C305.562 287.671 304.585 287.467 301.357 287.385C298.851 287.303 296.982 287.467 295.963 287.875Z" fill="#38243D"/>
<path d="M334.827 287.834C328.923 289.673 324.973 294.209 322.722 301.768C321.915 304.588 321.787 306.018 321.745 311.984C321.745 321.137 322.637 324.814 326.29 330.412C329.9 336.01 334.275 338.421 340.519 338.38C347.654 338.339 353.643 332.7 356.447 323.343C357.296 320.524 357.424 319.257 357.424 312.188C357.381 304.547 357.339 304.097 356.234 300.951C355.555 299.153 354.535 296.865 353.898 295.843C352.284 293.146 349.056 290 346.508 288.692C344.596 287.671 343.704 287.467 340.434 287.385C338.013 287.303 335.931 287.467 334.827 287.834ZM342.218 296.946C347.527 299.357 349.99 310.022 347.612 320.278C345.828 328.001 341.283 331.188 336.314 328.165C333.85 326.653 331.939 323.139 331.259 318.726C330.58 314.476 330.962 305.609 331.939 302.994C332.916 300.338 334.87 297.641 336.314 296.906C337.843 296.088 340.391 296.088 342.218 296.946Z" fill="#38243D"/>
<path d="M0.934441 499.411C0.424746 499.942 0 500.718 0 501.168C0 501.617 3.22807 507.215 7.13573 513.63C11.0859 520.005 19.8356 534.265 26.6316 545.298C33.4275 556.331 39.289 565.933 39.6713 566.628C40.2659 567.731 40.3509 570.469 40.3509 589.388V610.881L41.4127 611.862L42.4321 612.883H52.6685C62.3102 612.883 62.9049 612.842 63.7119 612.066C64.5189 611.289 64.5614 610.717 64.5614 589.796C64.5614 568.671 64.5614 568.262 65.4533 566.587C65.963 565.647 70.6352 557.965 75.8171 549.548C80.999 541.13 88.4746 528.994 92.3822 522.579C96.3324 516.164 100.835 508.809 102.449 506.234C104.02 503.66 105.337 501.331 105.337 501.086C105.337 500.841 104.955 500.146 104.445 499.533L103.553 498.43L91.2354 498.552L78.8753 498.675L77.8559 499.901C77.3037 500.555 74.2881 505.908 71.1874 511.751C57.8504 536.921 52.9658 546.074 52.711 546.36C52.5835 546.524 47.1468 536.513 40.6907 524.091C34.2345 511.669 28.373 500.882 27.6934 500.105L26.4192 498.675L14.144 498.552L1.86888 498.43L0.934441 499.411Z" fill="#38243D"/>
<path d="M346.847 499.37C346.295 500.146 346.168 501.781 346.168 509.217V518.125L347.23 519.106L348.249 520.127H363.71C376.112 520.127 379.298 520.25 379.68 520.659C380.02 521.067 380.148 534.061 380.232 566.423C380.36 611.085 380.36 611.616 381.209 612.229C381.931 612.76 383.885 612.842 392.593 612.883H403.126L404.146 611.821L405.208 610.717V565.688C405.208 524.99 405.292 520.618 405.887 520.373C406.269 520.25 413.49 520.127 421.985 520.127C435.449 520.127 437.531 520.046 438.083 519.474C438.677 518.942 438.762 517.43 438.762 509.34C438.762 500.636 438.677 499.778 437.998 499.165C437.276 498.512 433.496 498.471 392.338 498.471H347.485L346.847 499.37Z" fill="#38243D"/>
<path d="M525.368 499.533L524.349 500.596V555.677V610.758L525.368 611.821L526.388 612.883H535.647C544.822 612.883 544.906 612.883 546.096 611.902L547.285 610.922V555.759V500.596L546.266 499.533L545.246 498.471H535.817H526.388L525.368 499.533Z" fill="#38243D"/>
<path d="M128.571 526.257C112.897 528.667 101.514 536.799 95.1431 550.12C88.3472 564.34 89.9612 583.708 99.0083 596.579C110.774 613.414 135.664 619.38 155.754 610.227C163.017 606.917 168.369 602.504 172.744 596.212C181.197 584.076 182.768 565.974 176.652 551.427C173.933 545.012 168.582 538.27 163.017 534.225C159.407 531.609 152.654 528.545 147.812 527.278C144.584 526.461 142.502 526.216 137.405 526.052C133.922 525.971 129.93 526.052 128.571 526.257ZM144.074 545.421C149.68 547.995 154.14 553.593 156.137 560.58C157.241 564.421 157.241 575.536 156.137 579.581C153.376 589.633 146.495 595.803 137.405 596.416C123.219 597.397 113.492 585.342 114.427 567.935C114.851 559.804 117.017 554.042 121.35 549.548C125.512 545.216 129.335 543.786 136.343 543.95C140.846 544.072 141.44 544.195 144.074 545.421Z" fill="#38243D"/>
<path d="M329.603 526.257C324.336 527.196 319.791 529.566 315.671 533.489C314.227 534.919 312.868 536.063 312.656 536.063C312.443 536.063 312.146 534.511 311.976 532.631C311.551 527.482 311.976 527.687 300.72 527.687C292.225 527.687 291.376 527.768 290.569 528.463L289.677 529.239V569.978C289.677 610.595 289.677 610.717 290.569 611.821L291.418 612.883H300.848C306.029 612.883 310.489 612.72 310.744 612.556C312.103 611.698 312.188 610.472 312.188 587.467C312.188 562.092 312.273 561.438 314.822 556.78C316.563 553.675 320.301 550.038 323.232 548.649C327.139 546.769 330.155 546.238 335.932 546.238C340.264 546.238 341.368 546.156 342.005 545.584C342.685 544.971 342.77 544.113 342.77 536.472V528.014L341.666 527.033C340.689 526.134 340.222 526.052 336.059 525.971C333.553 525.93 330.665 526.052 329.603 526.257Z" fill="#38243D"/>
<path d="M461.954 526.257C454.223 527.442 448.107 530.138 443.265 534.47C439.442 537.902 436.936 541.539 435.322 545.952C433.241 551.672 433.793 554.369 437.148 555.023C439.187 555.432 450.485 555.309 451.675 554.901C452.312 554.655 453.034 553.797 453.586 552.612C456.474 546.36 461.699 543.582 469.939 543.909C479.113 544.317 483.87 548.036 485.485 555.963C486.122 558.946 485.824 560.499 484.508 560.948C483.998 561.152 479.581 561.52 474.653 561.765C463.015 562.378 454.945 563.236 451.038 564.299C441.396 566.832 433.92 573.002 431.584 580.357C427.762 592.411 433.666 605.773 445.134 611.167C454.86 615.743 466.626 615.989 474.951 611.78C476.692 610.922 479.368 609.001 481.28 607.244C483.148 605.569 484.805 604.343 484.975 604.466C485.145 604.629 485.485 606.223 485.739 608.021C486.504 613.087 485.994 612.883 497.165 612.883C505.83 612.883 506.637 612.801 507.316 612.107C507.954 611.412 507.996 609.083 507.911 582.196C507.784 553.225 507.741 552.98 506.807 549.793C503.876 540.027 498.567 533.734 489.944 529.73C484.04 526.992 480.218 526.216 471.68 526.052C467.73 525.971 463.313 526.052 461.954 526.257ZM485.4 580.316C485.527 586.2 485.187 587.059 481.195 590.859C476.352 595.476 470.491 597.642 463.78 597.274C460.892 597.151 459.787 596.865 458.003 595.966C452.652 593.147 450.953 586.405 454.393 581.624C456.007 579.336 460 577.456 464.46 576.925C468.155 576.435 483.021 575.331 484.423 575.454C485.23 575.495 485.272 575.822 485.4 580.316Z" fill="#38243D"/>
<path d="M594.347 526.461C580.585 528.872 569.627 537.412 563.51 550.569C560.112 557.924 558.456 567.568 559.348 575.413C560.622 587.099 564.7 595.966 572.09 603.117C579.863 610.595 588.315 613.945 600.421 614.395C618.897 615.09 632.616 607.939 640.05 593.801C641.536 590.9 641.706 589.224 640.602 588.244C639.922 587.631 638.563 587.549 630.62 587.549H621.446L619.789 589.715C618.855 590.9 617.411 592.452 616.561 593.188C609.086 599.48 595.196 598.582 588.188 591.308C585.385 588.325 584.153 585.955 583.303 581.828C582.411 577.538 582.751 576.721 585.555 576.353C586.659 576.23 599.953 576.108 615.074 576.108H642.64L643.32 575.045C644.764 572.961 643.32 560.09 640.899 553.062C638.393 545.788 632.999 537.78 627.987 533.857C623.102 530.016 616.094 527.156 609.68 526.257C605.433 525.725 598.127 525.807 594.347 526.461ZM609.17 544.195C612.441 545.421 615.924 548.526 617.538 551.591C619.11 554.655 620.086 559.436 619.279 560.376C618.812 560.907 616.519 560.989 601.61 560.989C586.616 560.989 584.408 560.907 583.856 560.335C582.964 559.518 583.006 558.333 584.026 555.227C585.852 549.548 589.972 545.298 595.324 543.664C598.467 542.683 605.985 543.01 609.17 544.195Z" fill="#38243D"/>
<path d="M194.279 527.85C192.41 528.627 192.367 529.362 192.537 560.785C192.707 594.414 192.58 593.147 196.02 600.012C199.121 606.141 202.901 609.492 209.655 612.107C215.983 614.558 223.119 615.13 230 613.741C236.031 612.556 240.661 610.268 246.013 605.855C247.372 604.752 248.646 603.934 248.859 604.057C249.028 604.18 249.241 605.773 249.283 607.571C249.326 609.41 249.453 611.126 249.581 611.412C250.048 612.638 251.959 612.883 260.836 612.883C269.756 612.883 269.756 612.883 270.775 611.862L271.837 610.881V570.264C271.837 530.874 271.795 529.566 271.03 528.667C270.223 527.687 270.181 527.687 260.666 527.687C251.959 527.687 251.025 527.768 250.26 528.463C249.368 529.199 249.368 529.607 249.198 554.002C249.028 581.052 249.071 580.48 246.438 585.833C244.866 589.061 241.128 592.575 237.56 594.209C234.842 595.435 234.417 595.517 229.787 595.517C225.2 595.517 224.733 595.435 222.354 594.291C220.443 593.392 219.466 592.575 218.447 591.104C215.516 586.895 215.601 587.835 215.346 557.311C215.219 542.152 214.964 529.403 214.794 529.035C214.582 528.667 214.114 528.218 213.732 528.055C212.713 527.605 195.341 527.442 194.279 527.85Z" fill="#38243D"/>
</svg>
